<svg width="28" height="27" viewBox="0 0 28 27" fill="none" xmlns="http://www.w3.org/2000/svg">
<path d="M14 0.919109C10.3008 0.960024 6.76575 2.32538 4.14985 4.72355C1.53395 7.12171 0.0446294 10.3625 0 13.7538C0.0446294 17.1451 1.53395 20.3859 4.14985 22.7841C6.76575 25.1822 10.3008 26.5476 14 26.5885C17.6992 26.5476 21.2343 25.1822 23.8501 22.7841C26.466 20.3859 27.9554 17.1451 28 13.7538C27.9554 10.3625 26.466 7.12171 23.8501 4.72355C21.2343 2.32538 17.6992 0.960024 14 0.919109V0.919109ZM22 14.6706H15V21.0879H13V14.6706H6V12.837H13V6.4197H15V12.837H22V14.6706Z" fill="#828282"/>
</svg>
