<svg width="1159" height="819" viewBox="0 0 1159 819" fill="none" xmlns="http://www.w3.org/2000/svg">
  <path d="M445.546 -58.2508L505.163 -312L455.825 -284.255L262.008 21.015H408.032L287.179 317.623L358.414 281.592L601.466 -58.2508H445.546Z" fill="#F1F1F1"/>
  <path d="M382.796 -22.3479L455.927 -284.256L211.666 60.8079H357.69L284.559 322.716L528.82 -22.3479H382.796Z" fill="#F8F8F8"/>
  <path d="M1063.08 438.033L1122.7 184.284L1073.36 212.029L879.542 517.299H1025.57L904.713 813.907L975.948 777.876L1219 438.033H1063.08Z" fill="#F1F1F1"/>
  <path d="M1000.33 473.936L1073.46 212.028L829.199 557.092H975.224L902.093 819L1146.35 473.936H1000.33Z" fill="#F8F8F8"/>
  <path d="M745.93 192.997L805.547 -60.752L756.209 -33.0073L562.392 272.263H708.416L587.563 568.871L658.798 532.84L901.85 192.997H745.93Z" fill="#F1F1F1"/>
  <path d="M683.18 228.9L756.311 -33.0081L512.05 312.056H658.074L584.943 573.964L829.204 228.9H683.18Z" fill="#F8F8F8"/>
  <line x1="4.07073" y1="-4.07073" x2="152.502" y2="-4.07073" transform="matrix(0.869159 0.494534 -0.50352 0.863984 1053.9 9.83838)" stroke="#F8F8F8" stroke-width="8.14147" stroke-linecap="round"/>
  <line x1="4.07073" y1="-4.07073" x2="240.919" y2="-4.07073" transform="matrix(0.869159 0.494534 -0.50352 0.863984 853.776 -104.03)" stroke="#F8F8F8" stroke-width="8.14147" stroke-linecap="round" stroke-dasharray="10.86 13.57"/>
  <line x1="5.17412" y1="-5.17412" x2="230.784" y2="-5.17412" transform="matrix(0.798811 -0.601582 0.610776 0.791803 159.972 759.912)" stroke="#F8F8F8" stroke-width="10.3482" stroke-linecap="round"/>
  <line x1="5.17412" y1="-5.17412" x2="230.784" y2="-5.17412" transform="matrix(0.798811 -0.601582 0.610776 0.791803 605.685 424.246)" stroke="#F8F8F8" stroke-width="10.3482" stroke-linecap="round"/>
  <line x1="5.17412" y1="-5.17412" x2="364.031" y2="-5.17412" transform="matrix(0.798811 -0.601582 0.610776 0.791803 328.5 632.993)" stroke="#F8F8F8" stroke-width="10.3482" stroke-linecap="round" stroke-dasharray="13.8 17.25"/>
  <line x1="4.69315" y1="-4.69315" x2="190.132" y2="-4.69315" transform="matrix(0.966693 0.255938 -0.261728 0.965142 0 75.916)" stroke="#F8F8F8" stroke-width="9.3863" stroke-linecap="round"/>
  <line x1="4.69315" y1="-4.69315" x2="190.132" y2="-4.69315" transform="matrix(0.966693 0.255938 -0.261728 0.965142 445.359 193.827)" stroke="#F8F8F8" stroke-width="9.3863" stroke-linecap="round"/>
  <line x1="4.69315" y1="-4.69315" x2="300.15" y2="-4.69315" transform="matrix(0.966693 0.255938 -0.261728 0.965142 168.395 120.499)" stroke="#F8F8F8" stroke-width="9.3863" stroke-linecap="round" stroke-dasharray="12.52 15.64"/>
  <line x1="4.69315" y1="-4.69315" x2="189.128" y2="-4.69315" transform="matrix(0.711333 -0.702855 0.711333 0.702855 732.099 759.993)" stroke="#F8F8F8" stroke-width="9.3863" stroke-linecap="round"/>
  <line x1="4.69315" y1="-4.69315" x2="189.128" y2="-4.69315" transform="matrix(0.711333 -0.702855 0.711333 0.702855 1058.12 437.853)" stroke="#F8F8F8" stroke-width="9.3863" stroke-linecap="round"/>
  <line x1="4.69315" y1="-4.69315" x2="298.58" y2="-4.69315" transform="matrix(0.711333 -0.702855 0.711333 0.702855 855.372 638.188)" stroke="#F8F8F8" stroke-width="9.3863" stroke-linecap="round" stroke-dasharray="12.52 15.64"/>
  <ellipse cx="263.273" cy="568.559" rx="14.6175" ry="14.4433" fill="#F8F8F8"/>
  <path d="M201.187 568.403L224.764 554.954L224.764 581.853L201.187 568.403Z" fill="#F8F8F8"/>
  <path d="M225.078 568.403L248.655 554.954L248.655 581.853L225.078 568.403Z" fill="#F8F8F8"/>
  <ellipse cx="313.569" cy="353.203" rx="14.6175" ry="14.4433" fill="#F8F8F8"/>
  <path d="M251.484 353.048L275.061 339.598L275.061 366.498L251.484 353.048Z" fill="#F8F8F8"/>
  <path d="M275.375 353.048L298.952 339.598L298.952 366.498L275.375 353.048Z" fill="#F8F8F8"/>
  <circle cx="1123.27" cy="740.875" r="20.925" transform="rotate(90 1123.27 740.875)" fill="#F8F8F8"/>
  <path d="M1123.5 652L1142.99 685.75H1104.01L1123.5 652Z" fill="#F8F8F8"/>
  <path d="M1123.5 686.2L1142.99 719.95H1104.01L1123.5 686.2Z" fill="#F8F8F8"/>
  </svg>
  