<svg width="17" height="11" viewBox="0 0 17 11" fill="none" xmlns="http://www.w3.org/2000/svg">
<path d="M16.6742 2.84884C16.885 2.63802 17 2.36969 17 2.05346C17 1.42099 16.5017 0.9131 15.8692 0.9131C15.553 0.9131 15.2655 1.04726 15.0451 1.26767L8.49042 7.97567L1.9549 1.26767C1.7345 1.04726 1.43743 0.9131 1.13078 0.9131C0.498308 0.9131 -4.05895e-07 1.42099 -3.78249e-07 2.05346C-3.64426e-07 2.3697 0.114994 2.63802 0.325817 2.84884L7.60879 10.3043C7.85795 10.5726 8.1646 10.6972 8.5 10.7068C8.8354 10.7068 9.12289 10.5726 9.38162 10.3043L16.6742 2.84884Z" fill="#4F4F4F"/>
</svg>
