<svg width="486" height="413" viewBox="0 0 486 413" fill="none" xmlns="http://www.w3.org/2000/svg">
    <g clip-path="url(#clip0_113_346)">
    <path d="M0 0H486V413H60C26.8629 413 0 386.137 0 353V0Z" fill="url(#paint0_radial_113_346)"/>
    <circle cx="322" cy="225" r="61" fill="#F8FFDE"/>
    <path fill-rule="evenodd" clip-rule="evenodd" d="M-55 110L-50.4775 137C-45.955 164 -36.91 218 -27.3625 218C-18.3175 218 -9.2725 164 -0.227501 140C8.8175 116 17.8625 122 27.41 125C36.455 128 45.5 128 54.545 137C63.59 146 73.1375 164 82.1825 182C91.2275 200 100.273 218 109.318 224C118.363 230 127.91 224 136.955 203C146 182 155.045 146 164.09 155C173.637 164 182.682 218 191.727 224C200.772 230 209.817 188 218.862 167C228.41 146 237.455 146 246.5 158C255.545 170 264.59 194 274.138 215C283.183 236 292.227 254 301.272 254C310.317 254 319.363 236 328.91 236C337.955 236 347 254 356.045 248C365.09 242 374.637 212 383.682 182C392.727 152 401.773 122 410.818 134C419.863 146 429.41 200 438.455 203C447.5 206 456.545 158 465.59 149C475.138 140 484.182 170 493.227 167C502.272 164 511.317 128 520.362 116C529.91 104 538.955 116 543.477 122L548 128V412.5H543.477C538.955 412.5 529.91 412.5 520.362 412.5C511.317 412.5 502.272 412.5 493.227 412.5C484.182 412.5 475.138 412.5 465.59 412.5C456.545 412.5 447.5 412.5 438.455 412.5C429.41 412.5 419.863 412.5 410.818 412.5C401.773 412.5 392.727 412.5 383.682 412.5C374.637 412.5 365.09 412.5 356.045 412.5C347 412.5 337.955 412.5 328.91 412.5C319.363 412.5 310.317 412.5 301.272 412.5C292.227 412.5 283.183 412.5 274.138 412.5C264.59 412.5 255.545 412.5 246.5 412.5C237.455 412.5 228.41 412.5 218.862 412.5C209.817 412.5 200.772 412.5 191.727 412.5C182.682 412.5 173.637 412.5 164.09 412.5C155.045 412.5 146 412.5 136.955 412.5C127.91 412.5 118.363 412.5 109.318 412.5C100.273 412.5 91.2275 412.5 82.1825 412.5C73.1375 412.5 63.59 412.5 54.545 412.5C45.5 412.5 36.455 412.5 27.41 412.5C17.8625 412.5 8.8175 412.5 -0.227501 412.5C-9.2725 412.5 -18.3175 412.5 -27.3625 412.5C-36.91 412.5 -45.955 412.5 -50.4775 412.5H-55V110Z" fill="url(#paint1_linear_113_346)"/>
    <path d="M340.5 329C372.9 343.4 381.667 390 382 411.5L475 424L485.5 409C462 385.167 432.5 322.5 319 309.5C263.092 303.096 287.5 268.92 301.5 254.5C251.5 306 300 311 340.5 329Z" fill="url(#paint2_linear_113_346)"/>
    <path d="M247 -110.216L487.401 -15.9956" stroke="url(#paint3_linear_113_346)" stroke-width="2.11877"/>
    <path d="M-55 4.78442L185.401 99.0044" stroke="url(#paint4_linear_113_346)" stroke-width="2.11877"/>
    <path fill-rule="evenodd" clip-rule="evenodd" d="M88.2296 318.816H69.7704H-52.949C-54.0817 318.816 -55 317.898 -55 316.765V312.402C-55 312.305 -54.9785 312.209 -54.9369 312.121L-54.6945 311.608C-54.5011 311.198 -53.8972 311.271 -53.8073 311.715C-53.75 311.998 -53.4476 312.175 -53.1592 312.157C-52.6075 312.121 -51.8689 312.204 -51.1766 312.321C-50.8279 312.38 -50.5993 311.9 -50.8768 311.68C-51.1202 311.488 -50.9841 311.096 -50.6738 311.096H-48.1737C-47.9614 311.096 -47.759 311.187 -47.617 311.345C-47.2429 311.761 -46.5568 311.633 -46.302 311.135C-45.7734 310.102 -45.1627 309.331 -44.5515 308.765C-43.9317 308.191 -43.7669 309.47 -43.9677 310.29C-44.1623 311.086 -42.6982 310.943 -41.8713 310.863H-41.8713L-41.8496 310.861C-41.325 310.81 -40.7935 310.881 -40.3653 310.993C-40.1431 311.052 -39.9107 311.068 -39.6844 311.029C-37.0246 310.563 -34.0494 311.362 -31.9544 312.218C-31.5272 312.392 -31.055 311.813 -31.3392 311.449L-31.4967 311.248C-31.7084 310.977 -31.4365 310.597 -31.112 310.71C-30.7876 310.824 -30.5156 310.444 -30.7273 310.173L-31.1666 309.611C-31.4973 309.188 -31.0931 308.589 -30.5771 308.738L-27.2142 309.705C-26.1347 310.015 -25.0741 309.196 -24.8538 308.094C-24.5775 306.714 -24.0483 305.717 -23.4296 305.012C-22.8103 304.307 -22.2508 304.808 -21.5758 305.412C-21.1527 305.791 -20.6842 306.211 -20.1272 306.399C-19.9107 306.473 -19.6725 306.509 -19.4349 306.518C-18.983 306.535 -18.536 306.735 -18.3235 307.134C-17.9259 307.88 -16.8508 307.87 -16.4627 307.119C-15.1809 304.636 -13.6028 301.682 -13.6028 302.09V304.596C-13.6028 304.996 -13.0963 305.17 -12.8503 304.854C-12.6317 304.573 -12.1847 304.674 -12.1078 305.022L-11.9768 305.614C-11.8195 306.324 -10.6525 306.418 -10.2646 305.802C-8.82087 303.511 -6.64235 302.003 -4.99062 301.2C-4.37425 300.901 -3.70918 301.376 -3.70918 302.062C-3.70918 302.906 -2.66666 303.448 -1.84991 303.234C-0.761414 302.948 0.348007 303.003 1.22482 303.17C1.57148 303.236 1.88756 302.796 1.67841 302.512C1.53047 302.311 1.63479 302.028 1.88291 302.001C3.46444 301.828 5.73504 302.376 7.45048 302.93C7.99034 303.104 8.50159 302.514 8.22746 302.018C7.96296 301.538 8.42329 300.983 8.94321 301.155L9.17221 301.23C9.53597 301.35 9.92828 301.154 10.0507 300.791L10.2893 300.083C10.4382 299.642 11.0607 299.636 11.2181 300.074C11.4045 300.593 12.4285 300.477 12.5838 299.947C13.7138 296.098 16.8201 293.473 17.3799 294.113C18.5004 295.392 18.3001 298.528 17.7541 299.564C18.5589 299.15 20.2381 298.454 21.2853 298.037C21.6697 298.269 22.1307 297.885 21.9714 297.465L21.5996 296.485C21.4292 296.036 21.6811 295.549 22.1615 295.559C24.0183 295.597 27.1787 296.748 29.6176 297.796C30.7398 298.278 31.8088 297.633 31.1762 296.588C30.8567 296.06 30.4337 295.514 29.9679 294.985C28.877 293.747 29.465 292.434 30.5297 293.695C31.5111 294.857 32.2588 296.49 32.7184 297.831C32.8492 298.212 33.3554 298.317 33.6126 298.006C33.8595 297.708 34.3373 297.793 34.4665 298.158L34.6205 298.593C34.821 299.159 35.565 299.272 35.8889 298.765C39.1692 293.641 37.7248 288.836 37.1426 286.9C36.9544 286.274 36.8563 285.947 37.0371 286.007C37.6008 286.193 39.6902 290.511 40.9539 293.275C41.0929 293.579 41.5321 293.562 41.6457 293.248C41.7625 292.924 42.2182 292.919 42.3419 293.24L42.6635 294.075C42.8394 294.531 43.4191 294.675 43.8338 294.416C46.1352 292.975 49.1278 293.046 50.8225 293.354C51.0954 293.404 51.3569 293.2 51.3569 292.923C51.3569 292.626 51.6522 292.421 51.9301 292.524L53.8637 293.241C54.2632 293.389 54.7009 293.395 55.1046 293.259C56.9005 292.654 59.2953 291.853 57.996 292.311C57.328 292.547 57.0535 292.864 56.9897 293.175C56.8594 293.811 57.7288 294.021 58.3599 293.871L63.6113 292.618C63.9746 292.531 64.2222 292.977 63.9565 293.24C63.6953 293.498 63.9186 293.886 64.257 293.743C66.6125 292.75 68.2782 290.482 68.9019 289.281C68.5071 290.101 69.086 291.172 69.8396 292.073C70.5549 292.928 71.8348 292.749 72.7784 292.155C73.9936 291.39 75.3346 291.092 76.351 291.019C76.8576 290.983 77.1615 291.507 76.942 291.965C76.8637 292.129 76.8515 292.298 76.8884 292.452C77.5506 292.531 78.2594 292.638 79 292.782C79.7406 292.638 80.4494 292.531 81.1116 292.452C81.1485 292.298 81.1363 292.129 81.058 291.965C80.8385 291.507 81.1424 290.983 81.649 291.019C82.6654 291.092 84.0064 291.39 85.2216 292.155C86.1652 292.749 87.4451 292.928 88.1604 292.073C88.914 291.172 89.4929 290.101 89.0981 289.281C89.7218 290.482 91.3875 292.75 93.743 293.743C94.0814 293.886 94.3047 293.498 94.0435 293.24C93.7778 292.977 94.0254 292.531 94.3887 292.618L99.6401 293.871C100.271 294.021 101.141 293.811 101.01 293.175C100.947 292.864 100.672 292.547 100.004 292.311C98.7047 291.853 101.1 292.654 102.895 293.259C103.299 293.395 103.737 293.389 104.136 293.241L106.07 292.524C106.348 292.421 106.643 292.626 106.643 292.923C106.643 293.2 106.905 293.404 107.177 293.354C108.872 293.046 111.865 292.975 114.166 294.416C114.581 294.675 115.161 294.531 115.337 294.075L115.658 293.24C115.782 292.919 116.237 292.924 116.354 293.248C116.468 293.562 116.907 293.579 117.046 293.275C118.31 290.511 120.399 286.193 120.963 286.007C121.144 285.947 121.046 286.274 120.857 286.9C120.275 288.836 118.831 293.641 122.111 298.765C122.435 299.272 123.179 299.159 123.38 298.593L123.533 298.158C123.663 297.793 124.14 297.708 124.387 298.006C124.645 298.317 125.151 298.212 125.282 297.831C125.741 296.49 126.489 294.857 127.47 293.695C128.535 292.434 129.123 293.747 128.032 294.985C127.566 295.514 127.143 296.06 126.824 296.588C126.191 297.633 127.26 298.278 128.382 297.796C130.821 296.748 133.982 295.597 135.839 295.559C136.319 295.549 136.571 296.036 136.4 296.485L136.029 297.465C135.869 297.885 136.33 298.269 136.715 298.037C137.762 298.454 139.441 299.15 140.246 299.564C139.7 298.528 139.5 295.392 140.62 294.113C141.18 293.473 144.286 296.098 145.416 299.947C145.571 300.477 146.596 300.593 146.782 300.074C146.939 299.636 147.562 299.642 147.711 300.083L147.949 300.791C148.072 301.154 148.464 301.35 148.828 301.23L149.057 301.155C149.577 300.983 150.037 301.538 149.773 302.018C149.498 302.514 150.01 303.104 150.55 302.93C152.265 302.376 154.536 301.828 156.117 302.001C156.365 302.028 156.47 302.311 156.322 302.512C156.112 302.796 156.429 303.236 156.775 303.17C157.652 303.003 158.761 302.948 159.85 303.234C160.667 303.448 161.709 302.906 161.709 302.062C161.709 301.376 162.374 300.901 162.991 301.2C164.642 302.003 166.821 303.511 168.265 305.802C168.652 306.418 169.82 306.324 169.977 305.614L170.108 305.022C170.185 304.674 170.632 304.573 170.85 304.854C171.096 305.17 171.603 304.996 171.603 304.596V302.09C171.603 301.682 173.181 304.636 174.463 307.119C174.851 307.87 175.926 307.88 176.323 307.134C176.536 306.735 176.983 306.535 177.435 306.518C177.673 306.509 177.911 306.473 178.127 306.399C178.684 306.211 179.153 305.791 179.576 305.412C180.251 304.808 180.81 304.307 181.43 305.012C182.048 305.717 182.578 306.714 182.854 308.094C183.074 309.196 184.135 310.015 185.214 309.705L188.577 308.738C189.093 308.589 189.497 309.188 189.167 309.611L188.727 310.173C188.516 310.444 188.788 310.824 189.112 310.71C189.436 310.597 189.708 310.977 189.497 311.248L189.339 311.449C189.055 311.813 189.527 312.392 189.954 312.218C192.049 311.362 195.025 310.563 197.684 311.029C197.911 311.068 198.143 311.052 198.365 310.993C198.794 310.881 199.325 310.81 199.85 310.861L199.871 310.863C200.698 310.943 202.162 311.086 201.968 310.29C201.767 309.47 201.932 308.191 202.552 308.765C203.163 309.331 203.773 310.102 204.302 311.135C204.557 311.633 205.243 311.761 205.617 311.345C205.759 311.187 205.961 311.096 206.174 311.096H208.674C208.984 311.096 209.12 311.488 208.877 311.68C208.599 311.9 208.828 312.38 209.177 312.321C209.869 312.204 210.608 312.121 211.159 312.157C211.448 312.175 211.75 311.998 211.807 311.715C211.897 311.271 212.501 311.198 212.695 311.608L212.937 312.121C212.978 312.209 213 312.305 213 312.402V316.765C213 317.898 212.082 318.816 210.949 318.816H88.2296ZM89.0689 289.224C89.0791 289.242 89.0889 289.261 89.0981 289.281C89.0881 289.261 89.0783 289.242 89.0689 289.224ZM68.9311 289.224C68.9209 289.242 68.9111 289.261 68.9019 289.281C68.9119 289.261 68.9217 289.242 68.9311 289.224Z" fill="url(#paint5_linear_113_346)"/>
    <path fill-rule="evenodd" clip-rule="evenodd" d="M46.7943 334.358C46.7713 334.427 46.7596 334.5 46.7596 334.572V334.572C46.7596 334.946 46.4522 335.244 46.0916 335.341C45.875 335.4 45.6506 335.49 45.4482 335.621C45.1785 335.796 45.0761 336.125 45.0761 336.446V340.972V341.309C45.0761 341.495 44.9254 341.645 44.7395 341.645V341.645H41.5972C41.2253 341.645 40.9239 341.344 40.9239 340.972V340.972V336.446C40.9239 336.124 40.8214 335.796 40.5518 335.621C40.3493 335.49 40.1249 335.4 39.9082 335.341C39.5477 335.244 39.2404 334.946 39.2404 334.572V334.572C39.2404 334.5 39.2286 334.427 39.2057 334.358L39.17 334.251C38.9531 333.601 38.2894 333.21 37.6155 333.337L37.1487 333.424C37.0488 333.443 36.9457 333.434 36.8505 333.398L36.5593 333.289C36.3362 333.205 36.0982 333.37 36.0982 333.609V333.609C36.0982 333.854 35.8447 334.018 35.652 333.866C35.4935 333.742 35.3777 333.594 35.4248 333.453C35.4665 333.328 35.3161 333.44 35.1017 333.641C34.569 334.141 33.8866 334.463 33.1562 334.463H32.0416C31.775 334.463 31.5297 334.609 31.4021 334.843V334.843C31.1691 335.27 30.5957 335.343 30.1951 335.067C29.9254 334.881 29.6795 334.776 29.5891 334.912C29.3646 335.248 26.559 336.258 25.549 336.146C24.894 336.073 23.3894 335.387 22.3515 334.914C21.7889 334.657 21.3633 334.463 21.2844 334.463C21.0724 334.463 22.5634 329.354 27.4613 329.168C27.8528 329.154 28.1309 328.741 27.9557 328.39V328.39C27.8588 328.197 27.6493 328.087 27.4341 328.112C26.8297 328.182 25.9805 328.246 25.3369 328.199C24.8752 328.165 24.4125 328.066 23.9496 328.066H22.1822C21.8352 328.066 22.1756 327.513 22.6332 326.769C22.9915 326.187 23.4217 325.487 23.6497 324.846C24.0354 323.761 22.2298 323.003 22.7731 321.988C22.9886 321.585 23.4396 321.069 24.2441 320.417C24.5058 320.204 24.8272 320.076 25.1615 320.034L30.0483 319.423C30.3304 319.388 30.4146 318.97 30.2154 318.767V318.767C29.9911 318.538 28.8824 317.808 28.5663 317.858C27.3165 318.056 25.128 318.264 21.4822 318.407C21.3546 318.412 21.2185 318.389 21.1284 318.298C20.9365 318.105 20.8851 317.786 21.5132 317.432C21.706 317.324 21.7113 317.026 21.5079 316.939V316.939C21.3841 316.886 21.3261 316.743 21.3779 316.619L22.1635 314.734C22.3155 314.369 22.6391 314.104 23.0266 314.026V314.026C23.3472 313.962 23.6214 313.764 23.8327 313.515C24.5022 312.724 25.8333 311.721 27.686 311.719C28.1872 311.718 28.6605 311.406 28.7638 310.916V310.916C28.8944 310.296 28.382 309.71 27.7481 309.701C26.8937 309.688 25.7464 309.612 24.3841 309.416C23.0617 309.226 22.8604 307.526 24.0554 306.929L24.9437 306.485C25.8016 306.056 25.6896 304.798 24.7694 304.527V304.527C23.785 304.237 23.7571 302.877 24.7366 302.571C26.4088 302.049 28.1325 301.567 29.0186 301.471C29.256 301.446 29.4769 301.246 29.4769 301.007V301.007C29.4769 300.777 29.6808 300.6 29.9088 300.633L29.9398 300.637C30.1282 300.664 30.3152 300.556 30.3454 300.368C30.3931 300.073 30.3589 299.737 30.038 299.673C29.9327 299.652 29.7563 299.623 29.5317 299.586C28.7927 299.465 27.5322 299.258 26.5696 298.965C26.1425 298.836 26.0125 298.334 26.2751 297.973L26.4591 297.72C26.5786 297.556 26.8048 297.512 26.9771 297.62L27.1332 297.717C27.3229 297.836 27.569 297.699 27.569 297.476V297.22C27.569 297.08 27.7322 297.003 27.8397 297.093V297.093C27.9636 297.196 28.1469 297.078 28.1045 296.923L27.935 296.301C27.9159 296.231 27.915 296.154 27.9609 296.098C28.0499 295.989 28.2378 295.871 28.5685 295.809C28.9786 295.731 29.2401 295.159 28.9261 294.884V294.884C28.6595 294.651 27.8715 294.669 27.522 294.611C27.206 294.559 26.7657 294.406 26.1634 294.092C25.6765 293.839 25.5088 293.227 25.9086 292.851C26.612 292.189 27.89 291.531 29.8686 291.668C30.0936 291.684 30.3034 291.541 30.3581 291.322V291.322C30.4255 291.053 30.2343 290.788 29.9575 290.766L29.7979 290.754C29.1987 290.708 29.052 289.896 29.5973 289.643L31.7077 288.665C31.8532 288.598 32.0116 288.563 32.1719 288.563V288.563C32.743 288.563 33.313 288.085 33.0629 287.571C32.9922 287.426 32.8863 287.328 32.7314 287.328V287.328C31.7849 287.328 30.8687 287.012 30.0948 286.467C29.194 285.833 28.2062 285.196 27.9057 285.196C27.723 285.196 27.7664 285.136 27.9042 284.948C28.1551 284.604 28.7191 283.831 28.7996 282.207C28.8232 281.733 28.8694 281.228 29.2748 280.98C29.9444 280.571 31.4196 280.13 34.2948 280.042C34.4993 280.036 34.6791 279.901 34.7379 279.705V279.705C34.8429 279.355 34.5268 279.024 34.1723 279.112L33.5716 279.262C33.3247 279.324 33.0632 279.268 32.8632 279.111L31.8738 278.334C31.126 277.746 31.1689 276.525 31.9873 276.04V276.04C32.3538 275.823 32.7179 275.256 32.4727 274.908C32.3455 274.727 32.1677 274.575 31.9285 274.535C31.3163 274.43 31.4709 271.784 34.0481 271.705C34.3637 271.695 34.6392 271.454 34.6392 271.138V270.999C34.6392 270.783 34.8151 270.607 35.032 270.607V270.607C35.249 270.607 35.4248 270.431 35.4248 270.214V269.827C35.4248 269.638 35.5784 269.484 35.7677 269.484H35.9013C36.0949 269.484 36.2208 269.281 36.1342 269.108V269.108C36.0335 268.906 36.2185 268.681 36.4356 268.74L36.6524 268.799C36.8819 268.862 37.1082 268.689 37.1082 268.451V267.962C37.1082 267.786 37.1716 267.615 37.2869 267.482L42.8065 261.097C42.8179 261.083 42.8391 261.087 42.8453 261.103V261.103C42.8529 261.123 42.8821 261.123 42.8893 261.103C42.8978 261.079 42.9063 261.056 42.9149 261.032C42.9278 260.997 42.9734 260.989 42.9982 261.017L48.7085 267.481C48.8266 267.615 48.8917 267.787 48.8917 267.966V268.451C48.8917 268.689 49.118 268.862 49.3476 268.799L49.5643 268.74C49.7815 268.681 49.9664 268.906 49.8657 269.107V269.107C49.7792 269.281 49.9051 269.484 50.0987 269.484H50.2322C50.4216 269.484 50.5751 269.638 50.5751 269.827V270.214C50.5751 270.431 50.751 270.607 50.9679 270.607V270.607C51.1848 270.607 51.3607 270.782 51.3607 270.999V271.138C51.3607 271.454 51.6363 271.695 51.9518 271.705C54.5291 271.784 54.6836 274.43 54.0714 274.535C53.8322 274.575 53.6545 274.727 53.5272 274.907C53.2821 275.256 53.6461 275.823 54.0126 276.04V276.04C54.831 276.525 54.8739 277.746 54.1261 278.334L53.1368 279.111C52.9367 279.268 52.6752 279.324 52.4283 279.262L51.8276 279.112C51.4731 279.024 51.157 279.355 51.262 279.705V279.705C51.3208 279.901 51.5007 280.036 51.7052 280.042C54.5804 280.13 56.0556 280.57 56.7252 280.98C57.1306 281.228 57.1767 281.733 57.2003 282.207C57.2808 283.831 57.8448 284.604 58.0957 284.948C58.2335 285.136 58.277 285.196 58.0942 285.196C57.7937 285.196 56.8059 285.833 55.9051 286.467C55.1312 287.012 54.215 287.328 53.2685 287.328V287.328C53.1136 287.328 53.0078 287.426 52.937 287.571C52.6869 288.085 53.2569 288.563 53.828 288.563V288.563C53.9884 288.563 54.1468 288.598 54.2923 288.665L56.4026 289.643C56.9479 289.896 56.8013 290.708 56.202 290.754L56.0424 290.766C55.7656 290.788 55.5745 291.053 55.6418 291.322V291.322C55.6965 291.541 55.9063 291.684 56.1313 291.668C58.1099 291.531 59.3879 292.189 60.0914 292.851C60.4912 293.227 60.3235 293.839 59.8365 294.092C59.2343 294.406 58.794 294.559 58.4779 294.611C58.1285 294.669 57.3404 294.651 57.0739 294.884V294.884C56.7598 295.159 57.0213 295.731 57.4314 295.808C57.7621 295.871 57.9501 295.989 58.039 296.098C58.0849 296.154 58.084 296.231 58.0649 296.301L57.8955 296.923C57.853 297.078 58.0363 297.196 58.1603 297.093V297.093C58.2677 297.003 58.4309 297.08 58.4309 297.22V297.476C58.4309 297.699 58.677 297.836 58.8668 297.717L59.0229 297.62C59.1951 297.512 59.4213 297.556 59.5408 297.72L59.7248 297.973C59.9874 298.334 59.8575 298.835 59.4303 298.965C58.4677 299.258 57.2072 299.465 56.4682 299.586C56.2436 299.623 56.0672 299.652 55.9619 299.673C55.641 299.737 55.6069 300.073 55.6545 300.368C55.6848 300.556 55.8717 300.664 56.0601 300.637L56.0912 300.632C56.3191 300.6 56.5231 300.777 56.5231 301.007V301.007C56.5231 301.246 56.7439 301.446 56.9813 301.471C57.8674 301.567 59.5912 302.049 61.2633 302.571C62.2428 302.876 62.215 304.237 61.2305 304.527V304.527C60.3103 304.797 60.1983 306.056 61.0562 306.485L61.9446 306.929C63.1395 307.526 62.9382 309.226 61.6159 309.416C60.2535 309.612 59.1062 309.688 58.2519 309.701C57.6179 309.71 57.1056 310.296 57.2362 310.916V310.916C57.3394 311.406 57.8127 311.718 58.3139 311.719C60.1666 311.721 61.4977 312.724 62.1672 313.515C62.3785 313.764 62.6527 313.962 62.9734 314.026V314.026C63.3609 314.104 63.6844 314.369 63.8364 314.734L64.622 316.619C64.6738 316.743 64.6158 316.886 64.4921 316.939V316.939C64.2886 317.026 64.2939 317.324 64.4868 317.432C65.1148 317.786 65.0634 318.105 64.8715 318.298C64.7814 318.389 64.6454 318.412 64.5177 318.407C60.872 318.264 58.6835 318.056 57.4337 317.858C57.1176 317.808 56.0088 318.538 55.7845 318.767V318.767C55.5853 318.97 55.6695 319.388 55.9516 319.423L60.8384 320.034C61.1727 320.076 61.4942 320.204 61.7558 320.417C62.5603 321.069 63.0114 321.585 63.2268 321.987C63.7702 323.003 61.9645 323.761 62.3502 324.846C62.5782 325.487 63.0084 326.187 63.3668 326.769C63.8243 327.513 64.1647 328.066 63.8177 328.066H62.0503C61.5874 328.066 61.1247 328.165 60.663 328.198C60.0195 328.246 59.1703 328.182 58.5658 328.112C58.3507 328.087 58.1411 328.197 58.0442 328.39V328.39C57.869 328.741 58.1471 329.153 58.5387 329.168C63.4366 329.354 64.9276 334.463 64.7155 334.463C64.6366 334.463 64.2111 334.657 63.6485 334.914C62.6105 335.387 61.106 336.073 60.4509 336.146C59.4409 336.258 56.6353 335.248 56.4108 334.912C56.3204 334.776 56.0745 334.881 55.8049 335.067C55.4043 335.343 54.8308 335.27 54.5979 334.843V334.843C54.4702 334.608 54.2249 334.463 53.9583 334.463H52.8438C52.1133 334.463 51.4309 334.141 50.8982 333.641C50.6839 333.44 50.5334 333.328 50.5751 333.453C50.6223 333.594 50.5065 333.742 50.3479 333.866C50.1553 334.018 49.9018 333.854 49.9018 333.609V333.609C49.9018 333.37 49.6638 333.205 49.4407 333.289L49.1494 333.398C49.0543 333.434 48.9512 333.443 48.8513 333.424L48.3844 333.337C47.7105 333.21 47.0468 333.601 46.83 334.251L46.7943 334.358Z" fill="url(#paint6_linear_113_346)"/>
    <path fill-rule="evenodd" clip-rule="evenodd" d="M89.2216 329.41C89.2216 329.41 89.2216 329.41 89.2216 329.41V329.717C89.2216 329.804 89.1514 329.874 89.0654 329.883C88.8764 329.905 88.644 329.966 88.4468 330.094C88.2874 330.198 88.2269 330.392 88.2269 330.582V333.256V333.455C88.2269 333.565 88.1378 333.654 88.0279 333.654V333.654H86.1711C85.9513 333.654 85.7732 333.476 85.7732 333.256V333.256V330.582C85.7732 330.392 85.7127 330.198 85.5533 330.094C85.3561 329.966 85.1237 329.905 84.9347 329.883C84.8487 329.874 84.7785 329.804 84.7785 329.717V329.41C84.7785 329.41 84.7785 329.41 84.7785 329.41V329.41C84.7785 329.41 84.7785 329.41 84.7785 329.41L84.6166 328.924C84.5574 328.746 84.3761 328.64 84.192 328.674L83.5424 328.796C83.4834 328.807 83.4225 328.802 83.3662 328.781L83.1941 328.716C83.0623 328.667 82.9217 328.764 82.9217 328.905V328.905C82.9217 329.05 82.7719 329.147 82.658 329.057C82.5643 328.984 82.4959 328.897 82.5238 328.813C82.5484 328.739 82.4595 328.805 82.3329 328.924C82.0181 329.22 81.6149 329.41 81.1832 329.41H80.5246C80.3671 329.41 80.2221 329.496 80.1467 329.634V329.634C80.0091 329.887 79.6702 329.93 79.4335 329.767C79.2741 329.657 79.1288 329.595 79.0754 329.675C78.9428 329.874 77.2849 330.471 76.6881 330.405C76.301 330.362 75.412 329.956 74.7986 329.676C74.4662 329.525 74.2147 329.41 74.1681 329.41C74.0428 329.41 74.9238 326.391 77.818 326.281C78.0494 326.273 78.2138 326.029 78.1102 325.822V325.822C78.053 325.707 77.9291 325.642 77.802 325.657C77.4448 325.699 76.943 325.736 76.5627 325.708C76.2899 325.688 76.0165 325.63 75.743 325.63H74.6986C74.4935 325.63 74.6947 325.303 74.9651 324.864C75.1392 324.58 75.3421 324.251 75.4836 323.932C75.8182 323.177 74.6781 322.517 75.1668 321.852C75.3175 321.647 75.5576 321.401 75.917 321.11C76.0716 320.984 76.2615 320.909 76.4591 320.884L79.3468 320.523C79.5135 320.502 79.5632 320.255 79.4455 320.135V320.135C79.313 320 78.6578 319.568 78.471 319.598C77.7324 319.715 76.4393 319.838 74.285 319.922C74.2095 319.925 74.1291 319.912 74.0759 319.858C73.9625 319.744 73.9321 319.555 74.3033 319.346C74.4172 319.282 74.4204 319.107 74.3001 319.055V319.055C74.227 319.024 74.1927 318.939 74.2233 318.866L74.6876 317.752C74.7774 317.536 74.9686 317.379 75.1975 317.334V317.334C75.387 317.296 75.5491 317.179 75.6739 317.031C76.0695 316.564 76.8561 315.971 77.9509 315.97C78.247 315.97 78.5267 315.786 78.5877 315.496V315.496C78.6649 315.129 78.3621 314.783 77.9875 314.778C77.4827 314.77 76.8047 314.725 75.9997 314.61C75.2183 314.497 75.0994 313.493 75.8055 313.14L76.3304 312.877C76.8374 312.624 76.7712 311.88 76.2274 311.72V311.72C75.6457 311.549 75.6292 310.745 76.208 310.565C77.1961 310.256 78.2147 309.972 78.7383 309.915C78.8786 309.9 79.0091 309.782 79.0091 309.641V309.641C79.0091 309.504 79.1296 309.4 79.2643 309.419L79.2826 309.422C79.394 309.438 79.5044 309.374 79.5223 309.263C79.5505 309.088 79.5303 308.89 79.3407 308.852C79.2784 308.84 79.1742 308.823 79.0415 308.801C78.6048 308.729 77.8599 308.607 77.2912 308.434C77.0387 308.357 76.9619 308.061 77.1171 307.848L77.2259 307.698C77.2965 307.601 77.4301 307.575 77.5319 307.639L77.6242 307.697C77.7363 307.767 77.8817 307.686 77.8817 307.554V307.402C77.8817 307.32 77.9781 307.275 78.0416 307.328V307.328C78.1149 307.389 78.2232 307.319 78.1981 307.227L78.098 306.86C78.0867 306.819 78.0862 306.773 78.1133 306.74C78.1659 306.675 78.2769 306.605 78.4723 306.569C78.7147 306.523 78.8692 306.185 78.6836 306.023V306.023C78.5261 305.885 78.0604 305.895 77.8539 305.861C77.6672 305.83 77.407 305.74 77.0511 305.554C76.7634 305.405 76.6643 305.043 76.9005 304.821C77.3162 304.43 78.0714 304.041 79.2405 304.122C79.3735 304.131 79.4975 304.047 79.5298 303.918V303.918C79.5696 303.759 79.4567 303.602 79.2931 303.589L79.1988 303.582C78.8447 303.555 78.758 303.075 79.0803 302.925L80.3273 302.347C80.4133 302.308 80.5069 302.287 80.6016 302.287V302.287C80.9391 302.287 81.2759 302.005 81.1281 301.701C81.0863 301.615 81.0237 301.558 80.9322 301.558V301.558C80.3729 301.558 79.8315 301.371 79.3742 301.049C78.842 300.674 78.2582 300.298 78.0807 300.298C77.9727 300.298 77.9983 300.262 78.0798 300.151C78.2269 299.949 78.5559 299.498 78.6077 298.555C78.6239 298.259 78.6542 297.945 78.9096 297.794C79.3143 297.556 80.185 297.303 81.856 297.252C81.9769 297.249 82.0831 297.169 82.1179 297.053V297.053C82.1799 296.846 81.9931 296.65 81.7836 296.703L81.4287 296.791C81.2828 296.828 81.1283 296.795 81.0101 296.702L80.4255 296.243C79.9836 295.895 80.0089 295.174 80.4925 294.887V294.887C80.7091 294.759 80.9242 294.424 80.7794 294.218C80.7042 294.111 80.5991 294.022 80.4578 293.998C80.096 293.936 80.1874 292.372 81.7103 292.325C81.8967 292.32 82.0596 292.177 82.0596 291.99V291.909C82.0596 291.781 82.1635 291.677 82.2917 291.677V291.677C82.4199 291.677 82.5238 291.573 82.5238 291.445V291.216C82.5238 291.104 82.6145 291.013 82.7264 291.013H82.8053C82.9197 291.013 82.9941 290.893 82.9429 290.791V290.791C82.8835 290.672 82.9927 290.539 83.1211 290.574L83.2492 290.608C83.3848 290.645 83.5185 290.543 83.5185 290.403V290.114C83.5185 290.01 83.556 289.909 83.6241 289.83L86.8857 286.057C86.8924 286.049 86.905 286.051 86.9086 286.061V286.061C86.9131 286.073 86.9304 286.073 86.9347 286.061C86.9397 286.047 86.9447 286.033 86.9498 286.019C86.9575 285.998 86.9844 285.993 86.9991 286.01L90.3733 289.83C90.4431 289.909 90.4816 290.011 90.4816 290.116V290.403C90.4816 290.543 90.6153 290.645 90.7509 290.608L90.879 290.573C91.0074 290.539 91.1166 290.672 91.0572 290.791V290.791C91.006 290.893 91.0804 291.013 91.1948 291.013H91.2737C91.3856 291.013 91.4763 291.104 91.4763 291.216V291.445C91.4763 291.573 91.5802 291.677 91.7084 291.677V291.677C91.8366 291.677 91.9405 291.781 91.9405 291.909V291.99C91.9405 292.177 92.1034 292.32 92.2898 292.325C93.8127 292.372 93.9041 293.936 93.5423 293.998C93.401 294.022 93.2959 294.111 93.2207 294.218C93.0759 294.424 93.291 294.759 93.5076 294.887V294.887C93.9912 295.174 94.0165 295.895 93.5746 296.243L92.99 296.702C92.8718 296.795 92.7173 296.828 92.5714 296.791L92.2165 296.703C92.007 296.65 91.8202 296.846 91.8822 297.053V297.053C91.917 297.169 92.0232 297.249 92.1441 297.252C93.8151 297.303 94.6858 297.556 95.0905 297.794C95.3459 297.945 95.3762 298.259 95.3924 298.555C95.4442 299.498 95.7732 299.949 95.9203 300.151C96.0018 300.262 96.0274 300.298 95.9194 300.298C95.7419 300.298 95.1581 300.674 94.6259 301.049C94.1686 301.371 93.6272 301.558 93.0679 301.558V301.558C92.9764 301.558 92.9138 301.615 92.872 301.701C92.7242 302.005 93.061 302.287 93.3985 302.287V302.287C93.4932 302.287 93.5868 302.308 93.6728 302.347L94.9198 302.925C95.2421 303.075 95.1554 303.555 94.8013 303.582L94.707 303.589C94.5434 303.602 94.4305 303.759 94.4703 303.918V303.918C94.5026 304.047 94.6266 304.131 94.7596 304.122C95.9287 304.041 96.6839 304.43 97.0996 304.821C97.3358 305.043 97.2367 305.405 96.949 305.554C96.5931 305.74 96.3329 305.83 96.1462 305.861C95.9397 305.895 95.474 305.885 95.3165 306.023V306.023C95.1309 306.185 95.2854 306.523 95.5278 306.569C95.7232 306.605 95.8342 306.675 95.8868 306.74C95.9139 306.773 95.9134 306.819 95.9021 306.86L95.802 307.227C95.7769 307.319 95.8852 307.389 95.9585 307.328V307.328C96.022 307.275 96.1184 307.32 96.1184 307.402V307.554C96.1184 307.686 96.2638 307.767 96.3759 307.696L96.4682 307.639C96.57 307.575 96.7036 307.601 96.7742 307.698L96.883 307.848C97.0382 308.061 96.9614 308.357 96.7089 308.434C96.1402 308.607 95.3953 308.729 94.9586 308.801C94.8259 308.823 94.7217 308.84 94.6594 308.852C94.4698 308.89 94.4496 309.088 94.4778 309.263C94.4957 309.374 94.6061 309.438 94.7175 309.422L94.7358 309.419C94.8705 309.4 94.991 309.504 94.991 309.641V309.641C94.991 309.782 95.1215 309.9 95.2618 309.915C95.7854 309.972 96.804 310.256 97.7921 310.565C98.3709 310.745 98.3544 311.549 97.7727 311.72V311.72C97.2289 311.88 97.1627 312.624 97.6697 312.877L98.1946 313.14C98.9007 313.493 98.7818 314.497 98.0004 314.61C97.1954 314.725 96.5174 314.77 96.0126 314.778C95.638 314.783 95.3352 315.129 95.4124 315.496V315.496C95.4734 315.786 95.7531 315.97 96.0492 315.97C97.144 315.971 97.9306 316.564 98.3262 317.031C98.451 317.179 98.6131 317.296 98.8026 317.334V317.334C99.0315 317.379 99.2227 317.536 99.3125 317.752L99.7768 318.866C99.8074 318.939 99.7731 319.024 99.7 319.055V319.055C99.5797 319.106 99.5829 319.282 99.6968 319.346C100.068 319.555 100.038 319.744 99.9242 319.858C99.871 319.911 99.7906 319.925 99.7151 319.922C97.5608 319.838 96.2676 319.715 95.5291 319.598C95.3423 319.568 94.6871 320 94.5546 320.135V320.135C94.4369 320.255 94.4866 320.502 94.6533 320.523L97.541 320.884C97.7386 320.909 97.9285 320.984 98.0831 321.11C98.4425 321.401 98.6826 321.647 98.8333 321.852C99.322 322.517 98.1819 323.177 98.5165 323.932C98.658 324.251 98.8609 324.58 99.035 324.863C99.3054 325.303 99.5066 325.63 99.3015 325.63H98.2571C97.9836 325.63 97.7102 325.688 97.4374 325.708C97.0571 325.736 96.5553 325.698 96.1981 325.657C96.071 325.642 95.9471 325.707 95.8899 325.822V325.822C95.7863 326.029 95.9507 326.272 96.1821 326.281C99.0763 326.391 99.9573 329.41 99.832 329.41C99.7854 329.41 99.5339 329.525 99.2015 329.676C98.5881 329.956 97.6991 330.362 97.312 330.405C96.7152 330.471 95.0573 329.874 94.9247 329.675C94.8713 329.595 94.726 329.657 94.5666 329.767C94.3299 329.93 93.991 329.887 93.8534 329.634V329.634C93.778 329.496 93.633 329.41 93.4755 329.41H92.8169C92.3852 329.41 91.982 329.22 91.6672 328.924C91.5406 328.805 91.4517 328.739 91.4763 328.813C91.5042 328.897 91.4358 328.984 91.3421 329.057C91.2282 329.147 91.0784 329.05 91.0784 328.905V328.905C91.0784 328.764 90.9378 328.667 90.806 328.716L90.6339 328.781C90.5776 328.802 90.5167 328.807 90.4577 328.796L89.8081 328.674C89.624 328.64 89.4427 328.746 89.3835 328.924L89.2216 329.41C89.2216 329.41 89.2216 329.41 89.2216 329.41V329.41Z" fill="url(#paint7_linear_113_346)"/>
    <path fill-rule="evenodd" clip-rule="evenodd" d="M138.105 349.37C138.071 349.472 138.054 349.579 138.054 349.686V349.686C138.054 350.238 137.6 350.678 137.067 350.822C136.747 350.909 136.416 351.041 136.117 351.236C135.718 351.494 135.567 351.979 135.567 352.454V359.14V359.637C135.567 359.912 135.344 360.135 135.07 360.135V360.135H130.428C129.878 360.135 129.433 359.689 129.433 359.14V359.14V352.454C129.433 351.979 129.282 351.494 128.883 351.235C128.584 351.041 128.252 350.908 127.932 350.822C127.4 350.678 126.946 350.238 126.946 349.686V349.686C126.946 349.579 126.929 349.472 126.895 349.37L126.842 349.212C126.522 348.251 125.541 347.674 124.545 347.861L123.856 347.99C123.708 348.018 123.556 348.004 123.415 347.952L122.985 347.79C122.656 347.667 122.304 347.91 122.304 348.262V348.262C122.304 348.624 121.93 348.867 121.645 348.643C121.411 348.459 121.24 348.241 121.309 348.032C121.371 347.847 121.149 348.013 120.832 348.31C120.045 349.049 119.037 349.524 117.958 349.524H116.312C115.918 349.524 115.555 349.739 115.367 350.085V350.085C115.023 350.716 114.175 350.824 113.584 350.417C113.185 350.143 112.822 349.987 112.688 350.187C112.357 350.685 108.212 352.177 106.72 352.011C105.752 351.904 103.53 350.89 101.996 350.19C101.165 349.811 100.537 349.524 100.42 349.524C100.107 349.524 102.31 341.977 109.545 341.703C110.124 341.681 110.534 341.071 110.275 340.554V340.554C110.132 340.267 109.823 340.106 109.505 340.143C108.612 340.246 107.358 340.34 106.407 340.27C105.725 340.22 105.041 340.074 104.357 340.074H101.747C101.234 340.074 101.737 339.257 102.413 338.158C103.098 337.044 103.961 335.641 104.124 334.508C104.288 333.368 102.368 333.039 102.381 331.888C102.388 331.234 102.99 330.236 104.792 328.774C105.179 328.461 105.654 328.271 106.148 328.209L113.367 327.307C113.784 327.255 113.908 326.636 113.614 326.337V326.337C113.282 326 111.644 324.92 111.177 324.994C109.331 325.286 106.098 325.594 100.712 325.805C100.524 325.813 100.323 325.778 100.19 325.645C99.9063 325.36 99.8303 324.888 100.758 324.365C101.043 324.205 101.051 323.766 100.75 323.637V323.637C100.567 323.559 100.482 323.348 100.558 323.164L101.719 320.379C101.943 319.84 102.421 319.448 102.994 319.334V319.334C103.467 319.239 103.873 318.947 104.185 318.578C105.174 317.41 107.14 315.928 109.877 315.925C110.617 315.924 111.317 315.464 111.469 314.739V314.739C111.662 313.823 110.905 312.958 109.969 312.944C108.707 312.925 107.012 312.813 104.999 312.524C103.046 312.242 102.748 309.732 104.514 308.849L105.826 308.193C107.093 307.559 106.928 305.701 105.568 305.301V305.301C104.114 304.873 104.073 302.863 105.52 302.411C107.99 301.641 110.537 300.929 111.846 300.787C112.196 300.749 112.523 300.454 112.523 300.101V300.101C112.523 299.761 112.824 299.5 113.161 299.548L113.207 299.554C113.485 299.594 113.761 299.435 113.806 299.158C113.876 298.721 113.826 298.225 113.352 298.13C113.196 298.099 112.935 298.056 112.604 298.002C111.512 297.823 109.65 297.517 108.228 297.085C107.597 296.893 107.405 296.153 107.793 295.619L108.065 295.245C108.241 295.003 108.575 294.938 108.83 295.097L109.06 295.241C109.341 295.416 109.704 295.215 109.704 294.884V294.506C109.704 294.299 109.945 294.187 110.104 294.319V294.319C110.287 294.471 110.558 294.297 110.495 294.067L110.245 293.15C110.217 293.046 110.215 292.933 110.283 292.849C110.415 292.688 110.692 292.513 111.181 292.421C111.787 292.308 112.173 291.462 111.709 291.056V291.056C111.315 290.712 110.151 290.738 109.635 290.653C109.168 290.576 108.517 290.349 107.628 289.886C106.908 289.511 106.661 288.608 107.251 288.053C108.29 287.074 110.178 286.102 113.101 286.305C113.434 286.328 113.744 286.117 113.824 285.794V285.794C113.924 285.396 113.642 285.004 113.233 284.973L112.997 284.955C112.112 284.887 111.895 283.686 112.701 283.313L115.818 281.869C116.033 281.769 116.267 281.717 116.504 281.717V281.717C117.348 281.717 118.19 281.012 117.82 280.253C117.716 280.039 117.559 279.894 117.33 279.894V279.894C115.932 279.894 114.579 279.427 113.436 278.622C112.105 277.685 110.646 276.744 110.202 276.744C109.932 276.744 109.996 276.656 110.199 276.377C110.587 275.845 111.481 274.62 111.534 271.989C111.544 271.513 111.571 271.006 111.943 270.711C112.765 270.058 114.932 269.274 119.64 269.13C119.942 269.121 120.208 268.921 120.295 268.632V268.632C120.45 268.115 119.983 267.626 119.459 267.757L118.572 267.978C118.207 268.07 117.821 267.987 117.525 267.755L116.064 266.606C114.959 265.739 115.022 263.934 116.231 263.218V263.218C116.773 262.898 117.31 262.06 116.948 261.545C116.76 261.278 116.498 261.055 116.144 260.994C115.24 260.839 115.468 256.931 119.276 256.814C119.742 256.799 120.149 256.443 120.149 255.976V255.772C120.149 255.451 120.409 255.192 120.729 255.192V255.192C121.05 255.192 121.309 254.932 121.309 254.611V254.04C121.309 253.76 121.536 253.534 121.816 253.534H122.013C122.299 253.534 122.485 253.233 122.357 252.977V252.977C122.209 252.68 122.482 252.346 122.803 252.434L123.123 252.521C123.462 252.614 123.796 252.358 123.796 252.007V251.285C123.796 251.024 123.89 250.773 124.06 250.576L132.214 241.143C132.231 241.123 132.262 241.128 132.271 241.152V241.152C132.283 241.182 132.326 241.182 132.337 241.152C132.349 241.117 132.362 241.082 132.374 241.048C132.393 240.996 132.461 240.983 132.497 241.025L140.933 250.575C141.107 250.772 141.204 251.026 141.204 251.29V252.007C141.204 252.358 141.538 252.614 141.877 252.521L142.197 252.434C142.518 252.346 142.791 252.679 142.643 252.977V252.977C142.515 253.233 142.701 253.534 142.987 253.534H143.184C143.464 253.534 143.691 253.76 143.691 254.04V254.611C143.691 254.932 143.95 255.192 144.271 255.192V255.192C144.591 255.192 144.851 255.451 144.851 255.772V255.976C144.851 256.443 145.258 256.799 145.724 256.814C149.532 256.931 149.76 260.839 148.855 260.994C148.502 261.054 148.24 261.278 148.052 261.545C147.689 262.06 148.227 262.898 148.769 263.218V263.218C149.978 263.934 150.041 265.738 148.936 266.606L147.475 267.755C147.179 267.987 146.793 268.07 146.428 267.978L145.541 267.757C145.017 267.626 144.55 268.115 144.705 268.632V268.632C144.792 268.921 145.058 269.121 145.36 269.13C150.068 269.274 152.235 270.058 153.057 270.71C153.429 271.006 153.456 271.513 153.466 271.989C153.519 274.62 154.413 275.845 154.801 276.377C155.004 276.656 155.068 276.744 154.798 276.744C154.354 276.744 152.895 277.685 151.564 278.622C150.421 279.427 149.068 279.894 147.669 279.894V279.894C147.441 279.894 147.284 280.038 147.18 280.253C146.81 281.011 147.652 281.717 148.496 281.717V281.717C148.733 281.717 148.967 281.769 149.182 281.869L152.299 283.313C153.105 283.686 152.888 284.887 152.003 284.955L151.767 284.973C151.358 285.004 151.076 285.396 151.175 285.794V285.794C151.256 286.117 151.566 286.328 151.899 286.305C154.821 286.102 156.709 287.074 157.749 288.053C158.339 288.608 158.091 289.511 157.372 289.886C156.482 290.349 155.832 290.576 155.365 290.653C154.849 290.738 153.685 290.712 153.291 291.056V291.056C152.827 291.462 153.213 292.308 153.819 292.421C154.308 292.513 154.585 292.688 154.717 292.849C154.785 292.932 154.783 293.046 154.755 293.15L154.505 294.067C154.442 294.297 154.713 294.471 154.896 294.319V294.319C155.055 294.186 155.296 294.299 155.296 294.506V294.884C155.296 295.215 155.659 295.416 155.94 295.241L156.17 295.097C156.425 294.938 156.759 295.003 156.935 295.245L157.207 295.619C157.595 296.153 157.403 296.893 156.772 297.085C155.35 297.517 153.488 297.823 152.396 298.002C152.064 298.056 151.804 298.099 151.648 298.13C151.174 298.225 151.124 298.721 151.194 299.158C151.239 299.435 151.515 299.594 151.793 299.554L151.839 299.548C152.176 299.5 152.477 299.761 152.477 300.101V300.101C152.477 300.454 152.803 300.749 153.154 300.787C154.463 300.929 157.01 301.641 159.48 302.411C160.927 302.863 160.886 304.873 159.431 305.301V305.301C158.072 305.701 157.907 307.559 159.174 308.193L160.486 308.849C162.252 309.732 161.954 312.242 160.001 312.524C157.988 312.813 156.293 312.925 155.031 312.944C154.095 312.958 153.338 313.823 153.531 314.739V314.739C153.683 315.464 154.382 315.924 155.123 315.925C157.86 315.928 159.826 317.41 160.815 318.578C161.127 318.947 161.532 319.239 162.006 319.334V319.334C162.579 319.448 163.056 319.84 163.281 320.379L164.442 323.164C164.518 323.348 164.432 323.559 164.25 323.637V323.637C163.949 323.766 163.957 324.205 164.242 324.365C165.17 324.888 165.094 325.359 164.81 325.645C164.677 325.778 164.476 325.813 164.287 325.805C158.902 325.594 155.669 325.286 153.822 324.994C153.355 324.92 151.718 326 151.386 326.337V326.337C151.092 326.636 151.216 327.255 151.633 327.307L158.852 328.209C159.346 328.271 159.821 328.461 160.207 328.774C162.01 330.236 162.611 331.234 162.619 331.888C162.632 333.039 160.712 333.368 160.876 334.508C161.039 335.641 161.902 337.044 162.587 338.158C163.263 339.257 163.766 340.074 163.253 340.074H160.643C159.959 340.074 159.275 340.22 158.593 340.27C157.642 340.34 156.388 340.246 155.495 340.143C155.177 340.106 154.868 340.267 154.724 340.554V340.554C154.466 341.071 154.876 341.681 155.455 341.703C162.69 341.976 164.893 349.524 164.58 349.524C164.463 349.524 163.834 349.811 163.003 350.19C161.47 350.89 159.247 351.903 158.28 352.011C156.788 352.177 152.643 350.685 152.311 350.187C152.178 349.987 151.815 350.142 151.416 350.417C150.824 350.824 149.977 350.716 149.633 350.085V350.085C149.445 349.739 149.082 349.524 148.688 349.524H147.042C145.963 349.524 144.955 349.049 144.168 348.31C143.851 348.013 143.629 347.847 143.691 348.032C143.76 348.241 143.589 348.459 143.355 348.643C143.07 348.867 142.696 348.624 142.696 348.262V348.262C142.696 347.91 142.344 347.667 142.015 347.79L141.584 347.952C141.444 348.004 141.292 348.017 141.144 347.99L140.455 347.861C139.459 347.674 138.478 348.251 138.158 349.212L138.105 349.37Z" fill="url(#paint8_linear_113_346)"/>
    </g>
    <defs>
    <radialGradient id="paint0_radial_113_346" cx="0" cy="0" r="1" gradientUnits="userSpaceOnUse" gradientTransform="translate(315.5 245.556) rotate(158.265) scale(425.232 366.777)">
    <stop stop-color="#FF9E48"/>
    <stop offset="1" stop-color="#922FEE"/>
    </radialGradient>
    <linearGradient id="paint1_linear_113_346" x1="246.5" y1="110" x2="246.5" y2="272" gradientUnits="userSpaceOnUse">
    <stop stop-color="#4C1E78"/>
    <stop offset="1" stop-color="#922FEE"/>
    <stop offset="1" stop-color="#922FEE"/>
    </linearGradient>
    <linearGradient id="paint2_linear_113_346" x1="437" y1="402" x2="257" y2="227.5" gradientUnits="userSpaceOnUse">
    <stop stop-color="#FFC15C"/>
    <stop offset="1" stop-color="#FFC15C" stop-opacity="0"/>
    </linearGradient>
    <linearGradient id="paint3_linear_113_346" x1="486.924" y1="-21.271" x2="280.369" y2="-94.0842" gradientUnits="userSpaceOnUse">
    <stop stop-color="white"/>
    <stop offset="1" stop-color="white" stop-opacity="0"/>
    </linearGradient>
    <linearGradient id="paint4_linear_113_346" x1="184.924" y1="93.729" x2="-21.6312" y2="20.9158" gradientUnits="userSpaceOnUse">
    <stop stop-color="white"/>
    <stop offset="1" stop-color="white" stop-opacity="0"/>
    </linearGradient>
    <linearGradient id="paint5_linear_113_346" x1="40.1614" y1="290.503" x2="39.9071" y2="318.938" gradientUnits="userSpaceOnUse">
    <stop stop-color="#E5616A"/>
    <stop offset="1" stop-color="#8D5256"/>
    </linearGradient>
    <linearGradient id="paint6_linear_113_346" x1="33.8471" y1="261.673" x2="33.8471" y2="341.645" gradientUnits="userSpaceOnUse">
    <stop offset="0.567708" stop-color="#E5616A"/>
    <stop offset="1" stop-color="#4F1A33"/>
    </linearGradient>
    <linearGradient id="paint7_linear_113_346" x1="81.5915" y1="286.398" x2="81.5915" y2="333.654" gradientUnits="userSpaceOnUse">
    <stop offset="0.567708" stop-color="#E5616A"/>
    <stop offset="1" stop-color="#4F1A33"/>
    </linearGradient>
    <linearGradient id="paint8_linear_113_346" x1="118.979" y1="241.994" x2="118.979" y2="360.135" gradientUnits="userSpaceOnUse">
    <stop offset="0.567708" stop-color="#E5616A"/>
    <stop offset="1" stop-color="#4F1A33"/>
    </linearGradient>
    <clipPath id="clip0_113_346">
    <path d="M0 0H486V413H60C26.8629 413 0 386.137 0 353V0Z" fill="white"/>
    </clipPath>
    </defs>
    </svg>
    