<svg width="611" height="251" viewBox="0 0 611 251" fill="none" xmlns="http://www.w3.org/2000/svg">
  <path d="M114.814 200.919C105.807 202.588 105.2 193.657 99.0046 191.428L91.6473 185.938L103.795 175.436C110.374 176.62 116.251 176.733 121.425 175.774C124.235 175.253 126.279 174.55 127.556 173.663C128.898 172.7 129.568 171.536 129.568 170.172C129.568 169.263 129.217 168.548 128.515 168.029C127.812 167.444 126.407 166.925 124.299 166.471C122.191 166.018 119.029 165.564 114.814 165.111C109.64 164.511 105.616 162.723 102.741 159.748C99.8669 156.708 98.4298 152.882 98.4298 148.269C98.4298 141.124 88.8108 145.486 93.4097 140.996C98.0725 136.429 105.747 124.253 124.107 121.781C128.195 121.023 132.219 120.732 136.179 120.907C140.14 121.018 143.653 121.634 146.719 122.754L141.545 138.427C128.706 148.927 141.545 138.427 128.706 148.927C126.087 148.828 126.982 137.618 124.49 138.08C120.275 138.861 118.167 140.421 118.167 142.76C118.167 143.929 118.838 144.812 120.179 145.408C121.584 145.927 124.427 146.407 128.706 146.848C135.413 147.424 140.491 149.276 143.94 152.405C147.389 155.468 149.114 159.599 149.114 164.796C149.114 172.006 146.815 177.987 142.216 182.737C137.617 187.422 123.82 199.25 114.814 200.919Z" fill="#FF9E48"/>
  <path d="M183.97 160.577L152.452 126.015L164.999 115.663L185.024 111.952L194.318 140.339L191.226 118.965L203.42 108.543L224.498 104.636L204.569 156.759V175.37L192.107 185.938L183.97 179.188V160.577Z" fill="#FF9E48"/>
  <path d="M243.594 101.097L262.852 97.5274L289.104 128.813L276.704 103.103L289.104 92.6619L306.255 89.4832V156.524L293.448 167.433L287.092 160.076L260.648 130.092V164.977L248.505 175.364L243.594 168.138L230.881 111.915L243.594 101.097Z" fill="#FF9E48"/>
  <path d="M332.141 84.6855L378.418 76.1086V90.9199L365.708 101.341L355.423 103.473V107.362L376.406 103.473V115.44L363.945 126.015L355.133 127.777L355.423 132.6L378.418 128.338V143.149L365.708 153.333L319.884 162.145V95.1818L332.141 84.6855Z" fill="#FF9E48"/>
  <path d="M448.543 138.352C436.535 140.578 433.1 128.922 430.417 118.116L428.022 108.523L423.519 109.358V134.79L412.413 145.402L402.536 138.679L390.382 82.2686L402.536 71.6385L431.567 66.258C437.06 65.2399 441.883 65.1906 446.034 66.1101C450.25 66.9528 453.508 68.6552 455.807 71.2173C458.107 73.7794 459.256 77.0093 459.256 80.907C459.256 85.2594 458.202 89.1251 456.095 92.5041C454.051 95.8062 450.857 98.8017 446.513 101.491C446.961 103.876 447.472 106.023 448.046 107.93C448.813 110.257 449.867 111.783 451.208 112.509C452.55 113.234 454.498 113.361 457.053 112.887C457.947 112.721 459.352 112.331 461.268 111.716V127.599C458.266 129.325 461.268 127.599 448.543 138.352ZM427.16 95.041C431.886 94.165 435.208 93.0297 437.124 91.6351C439.104 90.1638 440.094 88.1289 440.094 85.5304C440.094 83.3217 439.296 81.8781 437.699 81.1996C436.102 80.4562 433.579 80.4041 430.13 81.0434L423.519 82.2686V95.7158L427.16 95.041Z" fill="#FF9E48"/>
  <path d="M522.566 120.728C516.115 121.923 500.777 120.471 495.603 118.312C490.429 116.088 486.373 112.52 483.435 107.607C480.497 102.695 479.028 96.9585 479.028 90.3974C479.028 84.096 476.09 82.473 479.028 76.6665C482.03 70.8481 480.267 71.2173 485.554 66.1101C491.855 60.0246 507.228 50.7733 513.999 49.5184C517.704 48.8318 521.281 48.5911 524.73 48.7963C528.243 48.9897 531.405 49.6055 534.215 50.6437L527.892 66.9194C515.516 77.5477 527.892 66.9194 515.516 77.5477L504.06 74.0228C501.377 77.7032 500.298 81.5505 500.298 86.7475C500.298 90.1255 500.905 93.0663 502.118 95.5698C503.332 98.0083 505.025 99.8058 507.196 100.962C509.432 102.107 511.955 102.419 514.766 101.898C516.299 101.614 517.576 101.247 518.598 100.798L505.823 95.5698L518.598 85.1098L535.173 80.0888V110.589C527.956 115.304 529.616 113.678 522.566 120.728Z" fill="#FF9E48"/>
  <path d="M570.472 88.9427L539.309 54.6359L551.501 44.0295L571.526 40.3181L580.819 68.7056L578.083 47.5861L589.921 36.9087L611 33.002L591.071 85.1248V103.736L578.083 114.559L570.472 107.554V88.9427Z" fill="#FF9E48"/>
  <path d="M109.471 202.571C100.464 204.241 92.8633 203.96 86.6675 201.731L91.4581 185.739C98.0371 186.923 103.914 187.036 109.087 186.077C111.898 185.556 113.942 184.853 115.219 183.966C116.561 183.003 117.231 181.839 117.231 180.475C117.231 179.566 116.88 178.851 116.177 178.332C115.475 177.747 114.07 177.228 111.962 176.774C109.854 176.321 106.692 175.867 102.476 175.414C97.3025 174.814 93.2785 173.026 90.4041 170.051C87.5298 167.011 86.0926 163.185 86.0926 158.572C86.0926 151.427 88.3921 145.609 92.991 141.118C97.6539 136.551 103.914 133.54 111.77 132.084C115.858 131.326 119.882 131.035 123.842 131.21C127.803 131.321 131.316 131.936 134.382 133.057L129.208 148.73C125.631 148.159 122.501 147.862 119.818 147.839C117.199 147.74 114.644 147.921 112.153 148.383C107.938 149.164 105.83 150.724 105.83 153.063C105.83 154.232 106.5 155.115 107.842 155.711C109.247 156.23 112.089 156.71 116.369 157.151C123.076 157.727 128.154 159.579 131.603 162.708C135.052 165.771 136.777 169.902 136.777 175.099C136.777 182.309 134.477 188.29 129.878 193.04C125.279 197.725 118.477 200.902 109.471 202.571ZM171.633 170.88L152.662 125.966L172.687 122.255L181.98 150.642L191.082 118.846L212.161 114.939L192.232 167.062V185.673L171.633 189.491V170.88ZM231.257 111.4L250.515 107.83L276.767 139.116V102.965L293.917 99.7862V166.827L274.755 170.379L248.311 140.395V175.28L231.257 178.441V111.4ZM319.804 94.9884L366.081 86.4115V101.223L343.086 105.485V117.665L364.069 113.776V126.054L343.086 129.943V142.903L366.081 138.641V153.452L319.804 162.029V94.9884ZM440.117 141.29C428.108 143.515 420.763 139.225 418.08 128.419L415.685 118.826L411.182 119.661V145.093L390.199 148.982V81.9415L419.23 76.5609C424.723 75.5428 429.545 75.4935 433.697 76.413C437.913 77.2558 441.171 78.9581 443.47 81.5202C445.769 84.0823 446.919 87.3122 446.919 91.2099C446.919 95.5624 445.865 99.4281 443.757 102.807C441.713 106.109 438.52 109.105 434.176 111.794C434.623 114.179 435.134 116.326 435.709 118.233C436.476 120.56 437.53 122.086 438.871 122.811C440.212 123.537 442.161 123.663 444.716 123.19C445.61 123.024 447.015 122.634 448.931 122.019V137.902C445.929 139.628 442.991 140.757 440.117 141.29ZM414.822 105.344C419.549 104.468 422.871 103.333 424.787 101.938C426.767 100.467 427.757 98.4318 427.757 95.8333C427.757 93.6246 426.959 92.181 425.362 91.5025C423.765 90.7591 421.242 90.707 417.793 91.3463L411.182 92.5716V106.019L414.822 105.344ZM500.704 130.061C494.253 131.256 488.44 130.774 483.266 128.615C478.092 126.391 474.036 122.823 471.098 117.91C468.16 112.998 466.691 107.261 466.691 100.7C466.691 94.399 468.16 88.3451 471.098 82.5386C474.1 76.7202 478.252 71.7932 483.554 67.7574C488.855 63.7216 494.891 61.0762 501.662 59.8214C505.367 59.1347 508.944 58.894 512.393 59.0993C515.906 59.2927 519.068 59.9084 521.878 60.9466L515.555 77.2223C511.211 76.2084 507.155 76.0507 503.387 76.7491C498.468 77.6607 494.668 79.9891 491.985 83.7345C489.302 87.4148 487.961 91.8535 487.961 97.0504C487.961 100.428 488.568 103.369 489.781 105.873C490.995 108.311 492.688 110.109 494.859 111.265C497.095 112.41 499.618 112.722 502.428 112.201C503.961 111.917 505.239 111.55 506.261 111.101V95.4127L522.836 90.3918V120.891C515.619 125.607 508.241 128.664 500.704 130.061ZM558.135 99.2457L539.164 54.3324L559.189 50.6211L568.482 79.0085L577.584 47.2116L598.663 43.305L578.734 95.4278V114.039L558.135 117.857V99.2457Z" fill="#E5616A"/>
  <path d="M44.9424 176.245L56.3983 126.896L46.9175 132.292L9.67374 191.66H37.7338L14.5106 249.344L28.1992 242.337L74.904 176.245H44.9424Z" fill="#FF9E48"/>
  <path d="M32.8843 183.227L46.9372 132.292L0 199.399H28.06L14.0072 250.334L60.9444 183.227H32.8843Z" fill="#E5616A"/>
  <path d="M146.917 210.646L148.221 210.439C150.587 210.065 152.407 210.411 153.68 211.479C154.975 212.543 155.622 214.252 155.622 216.606C155.622 217.958 155.298 219.247 154.651 220.476C154.024 221.701 153.165 222.728 152.073 223.556C150.981 224.363 149.778 224.871 148.464 225.079L148.251 225.113L156.077 232.226L154.772 232.433L147.887 226.215V233.523L146.917 233.677V210.646ZM148.433 224.194C149.586 224.011 150.637 223.558 151.588 222.834C152.538 222.111 153.286 221.224 153.832 220.176C154.378 219.107 154.651 217.978 154.651 216.791C154.651 214.723 154.095 213.214 152.983 212.265C151.891 211.312 150.324 210.997 148.282 211.32L147.887 211.383V224.28L148.433 224.194ZM163.389 208.037L171.548 206.745V207.635L164.39 208.769V221.298L170.365 220.352V221.242L164.39 222.188V230.019L171.548 228.885V229.776L163.389 231.068V208.037ZM197.086 202.7L186.683 227.901L176.28 205.995L177.372 205.822L186.774 225.553L196.055 202.863L197.086 202.7ZM203.563 201.674L204.564 201.515V224.547L203.563 224.705V201.674ZM216.944 200.445L211.697 201.276V200.386L223.132 198.575V199.465L217.945 200.287V222.427L216.944 222.586V200.445ZM249.087 217.495L248.026 217.663L243.719 209.563L231.647 211.474L227.432 220.925L226.37 221.093L237.714 195.712L249.087 217.495ZM243.355 208.73L237.653 197.933L232.072 210.517L243.355 208.73ZM256.411 193.304L257.412 193.145V215.286L264.449 214.171V215.062L256.411 216.335V193.304ZM271.584 190.901L272.585 190.742V213.773L271.584 213.932V190.901ZM289.878 188.894L279.869 190.479V189.588L291.394 187.763L281.355 211.494L291.303 209.918V210.808L279.869 212.62L289.878 188.894ZM298.574 186.626L299.575 186.467V209.498L298.574 209.657V186.626ZM309.346 187.223V207.951L308.467 208.09V184.721L325.209 203.105V182.407L326.089 182.268V205.637L309.346 187.223ZM345.69 179.44C343.688 179.757 341.858 180.569 340.2 181.875C338.562 183.158 337.258 184.747 336.288 186.641C335.337 188.511 334.862 190.439 334.862 192.425C334.862 194.431 335.347 196.217 336.318 197.783C337.288 199.349 338.572 200.517 340.17 201.288C341.787 202.035 343.526 202.261 345.387 201.966C346.478 201.793 347.449 201.537 348.298 201.198C349.168 200.856 349.997 200.397 350.785 199.821V192.605L343.263 193.796V192.906L351.786 191.556V199.018L351.847 198.978V200.114C350.876 200.861 349.875 201.45 348.844 201.879C347.833 202.326 346.721 202.645 345.508 202.838C343.385 203.174 341.434 202.961 339.654 202.199C337.875 201.416 336.459 200.186 335.408 198.51C334.377 196.811 333.861 194.804 333.861 192.491C333.861 190.26 334.397 188.138 335.469 186.125C336.56 184.11 338.006 182.427 339.806 181.078C341.626 179.725 343.557 178.887 345.599 178.564C347.014 178.339 348.137 178.295 348.966 178.43C349.795 178.544 350.755 178.832 351.847 179.294V180.43C350.816 179.877 349.855 179.527 348.966 179.381C348.096 179.212 347.004 179.231 345.69 179.44ZM370.47 175.238L371.471 175.08C373.857 174.702 375.717 175.052 377.052 176.131C378.386 177.189 379.054 178.792 379.054 180.942C379.054 182.436 378.73 183.818 378.083 185.088C377.436 186.337 376.556 187.366 375.444 188.177C374.332 188.968 373.089 189.472 371.714 189.689L371.471 189.728V198.111L370.47 198.27V175.238ZM371.774 188.789C373.614 188.498 375.121 187.686 376.294 186.354C377.466 185.001 378.053 183.27 378.053 181.162C378.053 179.156 377.497 177.708 376.385 176.82C375.293 175.908 373.736 175.612 371.714 175.932L371.471 175.97V188.837L371.774 188.789ZM386.469 172.705L387.47 172.546V194.687L394.506 193.572V194.463L386.469 195.736V172.705ZM422.781 189.984L421.72 190.153L417.413 182.052L405.341 183.964L401.125 193.414L400.064 193.583L411.407 168.202L422.781 189.984ZM417.049 181.219L411.347 170.423L405.766 183.006L417.049 181.219ZM430.985 167.957V188.685L430.105 188.824V165.455L446.848 183.839V163.141L447.727 163.002V186.371L430.985 167.957ZM457.35 163.781V184.509L456.47 184.649V161.28L473.212 179.663V158.966L474.092 158.826V182.195L457.35 163.781ZM482.987 157.418L483.987 157.259V180.29L482.987 180.449V157.418ZM493.759 158.015V178.743L492.879 178.882V155.513L509.622 173.896V153.199L510.501 153.06V176.429L493.759 158.015ZM530.102 150.232C528.101 150.549 526.271 151.361 524.613 152.667C522.975 153.95 521.671 155.539 520.7 157.433C519.75 159.303 519.275 161.231 519.275 163.216C519.275 165.223 519.76 167.009 520.73 168.575C521.701 170.141 522.985 171.309 524.582 172.08C526.2 172.827 527.939 173.053 529.799 172.758C530.891 172.585 531.862 172.329 532.711 171.99C533.58 171.647 534.409 171.189 535.198 170.613V163.397L527.676 164.588V163.698L536.199 162.348V169.81L536.26 169.77V170.906C535.289 171.653 534.288 172.242 533.257 172.671C532.246 173.118 531.134 173.437 529.92 173.629C527.797 173.966 525.846 173.753 524.067 172.99C522.287 172.208 520.872 170.978 519.821 169.302C518.789 167.603 518.274 165.596 518.274 163.283C518.274 161.051 518.81 158.93 519.881 156.917C520.973 154.902 522.419 153.219 524.218 151.87C526.038 150.517 527.969 149.679 530.011 149.355C531.427 149.131 532.549 149.087 533.378 149.221C534.207 149.336 535.168 149.624 536.26 150.086V151.222C535.228 150.669 534.268 150.319 533.378 150.173C532.509 150.004 531.417 150.023 530.102 150.232Z" fill="#454545"/>
  <path d="M146.917 210.646V209.941L146.221 210.051V210.756L146.917 210.646ZM153.68 211.479L153.192 212.058L153.196 212.062L153.68 211.479ZM154.651 220.476L154.049 220.217L154.044 220.226L154.651 220.476ZM152.073 223.556L152.42 224.112L152.428 224.106L152.073 223.556ZM148.251 225.113V224.408L146.631 224.665L147.746 225.678L148.251 225.113ZM156.077 232.226V232.931L157.697 232.675L156.582 231.661L156.077 232.226ZM154.772 232.433L154.269 232.999L154.474 233.185L154.772 233.138V232.433ZM147.887 226.215L148.391 225.648L147.191 224.564V226.325L147.887 226.215ZM147.887 233.523V234.228L148.584 234.118V233.413L147.887 233.523ZM146.917 233.677L146.221 233.787V234.492L146.917 234.382V233.677ZM151.588 222.834L151.944 223.383L151.588 222.834ZM153.832 220.176L154.436 220.431L154.439 220.425L153.832 220.176ZM152.983 212.265L152.486 212.837L152.491 212.841L152.983 212.265ZM147.887 211.383V210.678L147.191 210.788V211.493L147.887 211.383ZM147.887 224.28L147.191 224.39V225.095L147.887 224.985V224.28ZM146.917 211.351L148.221 211.144V209.734L146.917 209.941V211.351ZM148.221 211.144C150.465 210.789 152.086 211.132 153.192 212.058L154.169 210.899C152.727 209.69 150.708 209.34 148.221 209.734V211.144ZM153.196 212.062C154.318 212.985 154.925 214.495 154.925 216.717L156.318 216.496C156.318 214.009 155.631 212.101 154.165 210.895L153.196 212.062ZM154.925 216.717C154.925 217.948 154.632 219.11 154.049 220.217L155.253 220.735C155.964 219.385 156.318 217.967 156.318 216.496L154.925 216.717ZM154.044 220.226C153.477 221.335 152.704 222.258 151.718 223.006L152.428 224.106C153.625 223.198 154.571 222.068 155.258 220.726L154.044 220.226ZM151.726 222.999C150.745 223.725 149.662 224.185 148.464 224.374V225.784C149.894 225.558 151.218 225.001 152.42 224.112L151.726 222.999ZM148.464 224.374L148.251 224.408V225.818L148.464 225.784V224.374ZM147.746 225.678L155.571 232.791L156.582 231.661L148.757 224.548L147.746 225.678ZM156.077 231.521L154.772 231.728V233.138L156.077 232.931V231.521ZM155.276 231.867L148.391 225.648L147.384 226.781L154.269 232.999L155.276 231.867ZM147.191 226.325V233.634L148.584 233.413V226.104L147.191 226.325ZM147.887 232.818L146.917 232.972V234.382L147.887 234.228V232.818ZM147.613 233.567V210.536L146.221 210.756V233.787L147.613 233.567ZM148.433 224.899C149.706 224.697 150.881 224.193 151.944 223.383L151.231 222.285C150.393 222.923 149.466 223.325 148.433 223.489V224.899ZM151.944 223.383C152.996 222.582 153.83 221.595 154.436 220.431L153.228 219.92C152.743 220.853 152.08 221.639 151.231 222.285L151.944 223.383ZM154.439 220.425C155.047 219.235 155.347 217.982 155.347 216.681L153.955 216.901C153.955 217.974 153.709 218.978 153.225 219.926L154.439 220.425ZM155.347 216.681C155.347 214.484 154.754 212.78 153.475 211.688L152.491 212.841C153.436 213.649 153.955 214.962 153.955 216.901L155.347 216.681ZM153.48 211.692C152.22 210.592 150.45 210.272 148.282 210.615V212.025C150.198 211.722 151.562 212.031 152.486 212.837L153.48 211.692ZM148.282 210.615L147.887 210.678V212.088L148.282 212.025V210.615ZM147.191 211.493V224.39L148.584 224.17V211.272L147.191 211.493ZM147.887 224.985L148.433 224.899V223.489L147.887 223.575V224.985ZM163.389 208.037V207.332L162.692 207.442V208.147L163.389 208.037ZM171.548 206.745L172.244 206.634V205.929L171.548 206.04V206.745ZM171.548 207.635V208.34L172.244 208.23V207.525L171.548 207.635ZM164.39 208.769V208.064L163.693 208.174V208.879L164.39 208.769ZM164.39 221.298L163.693 221.408V222.113L164.39 222.003V221.298ZM170.365 220.352L171.061 220.241V219.536L170.365 219.647V220.352ZM170.365 221.242V221.947L171.061 221.837V221.132L170.365 221.242ZM164.39 222.188V221.484L163.693 221.594V222.299L164.39 222.188ZM164.39 230.019L163.693 230.129V230.834L164.39 230.724V230.019ZM171.548 228.885L172.244 228.775V228.07L171.548 228.18V228.885ZM171.548 229.776V230.481L172.244 230.371V229.666L171.548 229.776ZM163.389 231.068L162.692 231.178V231.883L163.389 231.773V231.068ZM163.389 208.742L171.548 207.45V206.04L163.389 207.332V208.742ZM170.851 206.855V207.746L172.244 207.525V206.634L170.851 206.855ZM171.548 206.93L164.39 208.064V209.474L171.548 208.34V206.93ZM163.693 208.879V221.408L165.086 221.188V208.659L163.693 208.879ZM164.39 222.003L170.365 221.057V219.647L164.39 220.593V222.003ZM169.668 220.462V221.352L171.061 221.132V220.241L169.668 220.462ZM170.365 220.537L164.39 221.484V222.893L170.365 221.947V220.537ZM163.693 222.299V230.129L165.086 229.909V222.078L163.693 222.299ZM164.39 230.724L171.548 229.59V228.18L164.39 229.314V230.724ZM170.851 228.996V229.886L172.244 229.666V228.775L170.851 228.996ZM171.548 229.071L163.389 230.363V231.773L171.548 230.481V229.071ZM164.085 230.958V207.927L162.692 208.147V231.178L164.085 230.958ZM197.086 202.7L197.722 202.887L198.161 201.825L197.086 201.995V202.7ZM186.683 227.901L186.047 228.289L186.683 229.628L187.319 228.088L186.683 227.901ZM176.28 205.995V205.29L175.206 205.46L175.644 206.384L176.28 205.995ZM177.372 205.822L178.007 205.433L177.823 205.046L177.372 205.117V205.822ZM186.774 225.553L186.139 225.942L186.778 227.283L187.411 225.737L186.774 225.553ZM196.055 202.863V202.158L195.602 202.23L195.418 202.678L196.055 202.863ZM196.451 202.513L186.047 227.714L187.319 228.088L197.722 202.887L196.451 202.513ZM187.319 227.512L176.915 205.607L175.644 206.384L186.047 228.289L187.319 227.512ZM176.28 206.7L177.372 206.527V205.117L176.28 205.29V206.7ZM176.736 206.211L186.139 225.942L187.409 225.163L178.007 205.433L176.736 206.211ZM187.411 225.737L196.692 203.048L195.418 202.678L186.137 225.368L187.411 225.737ZM196.055 203.568L197.086 203.405V201.995L196.055 202.158V203.568ZM203.563 201.674V200.969L202.867 201.079V201.784L203.563 201.674ZM204.564 201.515L205.261 201.405V200.7L204.564 200.81V201.515ZM204.564 224.547V225.252L205.261 225.141V224.436L204.564 224.547ZM203.563 224.705L202.867 224.815V225.52L203.563 225.41V224.705ZM203.563 202.379L204.564 202.22V200.81L203.563 200.969V202.379ZM203.868 201.626V224.657L205.261 224.436V201.405L203.868 201.626ZM204.564 223.842L203.563 224V225.41L204.564 225.252V223.842ZM204.26 224.595V201.564L202.867 201.784V224.815L204.26 224.595ZM216.944 200.445L217.64 200.335V199.63L216.944 199.74V200.445ZM211.697 201.276L211.001 201.386V202.091L211.697 201.981V201.276ZM211.697 200.386V199.681L211.001 199.791V200.496L211.697 200.386ZM223.132 198.575L223.828 198.464V197.759L223.132 197.87V198.575ZM223.132 199.465V200.17L223.828 200.06V199.355L223.132 199.465ZM217.945 200.287V199.582L217.249 199.692V200.397L217.945 200.287ZM217.945 222.427V223.132L218.641 223.022V222.317L217.945 222.427ZM216.944 222.586L216.248 222.696V223.401L216.944 223.291V222.586ZM216.944 199.74L211.697 200.571V201.981L216.944 201.15V199.74ZM212.393 201.166V200.275L211.001 200.496V201.386L212.393 201.166ZM211.697 201.091L223.132 199.28V197.87L211.697 199.681V201.091ZM222.435 198.685V199.575L223.828 199.355V198.464L222.435 198.685ZM223.132 198.76L217.945 199.582V200.992L223.132 200.17V198.76ZM217.249 200.397V222.538L218.641 222.317V200.176L217.249 200.397ZM217.945 221.722L216.944 221.881V223.291L217.945 223.132V221.722ZM217.64 222.476V200.335L216.248 200.555V222.696L217.64 222.476ZM249.087 217.495V218.2L250.202 218.023L249.713 217.086L249.087 217.495ZM248.026 217.663L247.402 218.075L247.594 218.436L248.026 218.368V217.663ZM243.719 209.563L244.343 209.15L244.151 208.789L243.719 208.858V209.563ZM231.647 211.474V210.77L231.212 210.839L231.021 211.266L231.647 211.474ZM227.432 220.925V221.63L227.867 221.561L228.058 221.134L227.432 220.925ZM226.37 221.093L225.744 220.883L225.256 221.974L226.37 221.798V221.093ZM237.714 195.712L238.339 195.304L237.713 194.104L237.087 195.503L237.714 195.712ZM243.355 208.73V209.435L244.475 209.257L243.979 208.319L243.355 208.73ZM237.653 197.933L238.277 197.522L237.646 196.327L237.026 197.726L237.653 197.933ZM232.072 210.517L231.445 210.309L230.963 211.397L232.072 211.222V210.517ZM249.087 216.79L248.026 216.958V218.368L249.087 218.2V216.79ZM248.649 217.251L244.343 209.15L243.095 209.975L247.402 218.075L248.649 217.251ZM243.719 208.858L231.647 210.77V212.179L243.719 210.268V208.858ZM231.021 211.266L226.805 220.716L228.058 221.134L232.274 211.683L231.021 211.266ZM227.432 220.22L226.37 220.388V221.798L227.432 221.63V220.22ZM226.996 221.302L238.34 195.922L237.087 195.503L225.744 220.883L226.996 221.302ZM237.088 196.121L248.462 217.903L249.713 217.086L238.339 195.304L237.088 196.121ZM243.979 208.319L238.277 197.522L237.028 198.344L242.731 209.141L243.979 208.319ZM237.026 197.726L231.445 210.309L232.699 210.724L238.28 198.14L237.026 197.726ZM232.072 211.222L243.355 209.435V208.025L232.072 209.812V211.222ZM256.411 193.304V192.599L255.715 192.709V193.414L256.411 193.304ZM257.412 193.145L258.109 193.035V192.33L257.412 192.44V193.145ZM257.412 215.286L256.716 215.396V216.101L257.412 215.991V215.286ZM264.449 214.171L265.145 214.061V213.356L264.449 213.466V214.171ZM264.449 215.062V215.767L265.145 215.657V214.952L264.449 215.062ZM256.411 216.335L255.715 216.445V217.15L256.411 217.04V216.335ZM256.411 194.009L257.412 193.85V192.44L256.411 192.599V194.009ZM256.716 193.255V215.396L258.109 215.175V193.035L256.716 193.255ZM257.412 215.991L264.449 214.876V213.466L257.412 214.581V215.991ZM263.753 214.282V215.172L265.145 214.952V214.061L263.753 214.282ZM264.449 214.357L256.411 215.63V217.04L264.449 215.767V214.357ZM257.108 216.225V193.193L255.715 193.414V216.445L257.108 216.225ZM271.584 190.901V190.196L270.887 190.306V191.011L271.584 190.901ZM272.585 190.742L273.281 190.632V189.927L272.585 190.037V190.742ZM272.585 213.773V214.478L273.281 214.368V213.663L272.585 213.773ZM271.584 213.932L270.887 214.042V214.747L271.584 214.637V213.932ZM271.584 191.606L272.585 191.447V190.037L271.584 190.196V191.606ZM271.888 190.852V213.884L273.281 213.663V190.632L271.888 190.852ZM272.585 213.068L271.584 213.227V214.637L272.585 214.478V213.068ZM272.28 213.822V190.79L270.887 191.011V214.042L272.28 213.822ZM289.878 188.894L290.511 189.087L290.962 188.017L289.878 188.189V188.894ZM279.869 190.479L279.173 190.589V191.294L279.869 191.184V190.479ZM279.869 189.588V188.883L279.173 188.994V189.699L279.869 189.588ZM291.394 187.763L292.027 187.957L292.48 186.886L291.394 187.058V187.763ZM281.355 211.494L280.722 211.3L280.269 212.371L281.355 212.199V211.494ZM291.303 209.918L292 209.808V209.103L291.303 209.213V209.918ZM291.303 210.808V211.513L292 211.403V210.698L291.303 210.808ZM279.869 212.62L279.236 212.426L278.785 213.496L279.869 213.325V212.62ZM289.878 188.189L279.869 189.774V191.184L289.878 189.599V188.189ZM280.565 190.369V189.478L279.173 189.699V190.589L280.565 190.369ZM279.869 190.293L291.394 188.468V187.058L279.869 188.883V190.293ZM290.762 187.569L280.722 211.3L281.988 211.688L292.027 187.957L290.762 187.569ZM281.355 212.199L291.303 210.623V209.213L281.355 210.789V212.199ZM290.607 210.028V210.919L292 210.698V209.808L290.607 210.028ZM291.303 210.104L279.869 211.915V213.325L291.303 211.513V210.104ZM280.502 212.813L290.511 189.087L289.245 188.7L279.236 212.426L280.502 212.813ZM298.574 186.626V185.921L297.878 186.031V186.736L298.574 186.626ZM299.575 186.467L300.271 186.357V185.652L299.575 185.762V186.467ZM299.575 209.498V210.203L300.271 210.093V209.388L299.575 209.498ZM298.574 209.657L297.878 209.767V210.472L298.574 210.362V209.657ZM298.574 187.331L299.575 187.172V185.762L298.574 185.921V187.331ZM298.879 186.577V209.609L300.271 209.388V186.357L298.879 186.577ZM299.575 208.793L298.574 208.952V210.362L299.575 210.203V208.793ZM299.27 209.547V186.515L297.878 186.736V209.767L299.27 209.547ZM309.346 187.223L309.889 186.695L308.65 185.332V187.333L309.346 187.223ZM309.346 207.951V208.656L310.043 208.545V207.84L309.346 207.951ZM308.467 208.09L307.771 208.2V208.905L308.467 208.795V208.09ZM308.467 184.721L309.009 184.193L307.771 182.833V184.831L308.467 184.721ZM325.209 203.105L324.667 203.633L325.905 204.993V202.994L325.209 203.105ZM325.209 182.407V181.702L324.513 181.812V182.517L325.209 182.407ZM326.089 182.268L326.785 182.158V181.453L326.089 181.563V182.268ZM326.089 205.637L325.546 206.165L326.785 207.527V205.527L326.089 205.637ZM308.65 187.333V208.061L310.043 207.84V187.112L308.65 187.333ZM309.346 207.246L308.467 207.385V208.795L309.346 208.656V207.246ZM309.163 207.98V184.611L307.771 184.831V208.2L309.163 207.98ZM307.925 185.249L324.667 203.633L325.751 202.576L309.009 184.193L307.925 185.249ZM325.905 202.994V182.297L324.513 182.517V203.215L325.905 202.994ZM325.209 183.112L326.089 182.973V181.563L325.209 181.702V183.112ZM325.392 182.378V205.747L326.785 205.527V182.158L325.392 182.378ZM326.631 205.109L309.889 186.695L308.804 187.751L325.546 206.165L326.631 205.109ZM340.2 181.875L340.566 182.417L340.568 182.416L340.2 181.875ZM336.287 186.641L335.681 186.39L335.68 186.393L336.287 186.641ZM336.318 197.783L335.713 198.228L336.318 197.783ZM340.17 201.288L339.797 201.942L339.806 201.947L340.17 201.288ZM348.298 201.198L348.141 200.536L348.137 200.538L348.298 201.198ZM350.785 199.821L351.127 200.381L351.482 200.123V199.711L350.785 199.821ZM350.785 192.605L351.482 192.495V191.79L350.785 191.9V192.605ZM343.263 193.796L342.567 193.907V194.612L343.263 194.501V193.796ZM343.263 192.906V192.201L342.567 192.311V193.016L343.263 192.906ZM351.786 191.556L352.483 191.446V190.741L351.786 190.851V191.556ZM351.786 199.018L351.09 199.128V200.269L352.098 199.599L351.786 199.018ZM351.847 198.978L352.543 198.867V197.727L351.536 198.396L351.847 198.978ZM351.847 200.114L352.207 200.66L352.543 200.401V200.004L351.847 200.114ZM348.844 201.879L348.672 201.223L348.664 201.227L348.656 201.23L348.844 201.879ZM339.654 202.199L339.3 202.862L339.305 202.864L339.654 202.199ZM335.408 198.51L334.8 198.951L334.805 198.959L335.408 198.51ZM335.469 186.125L334.871 185.857L334.869 185.863L335.469 186.125ZM339.806 181.078L339.457 180.523L339.455 180.525L339.806 181.078ZM348.966 178.43L348.755 179.135L348.763 179.136L348.77 179.137L348.966 178.43ZM351.847 179.294L352.543 179.183V178.775L352.194 178.627L351.847 179.294ZM351.847 180.43L351.453 181.073L352.543 181.658V180.32L351.847 180.43ZM348.966 179.381L348.736 180.083L348.745 180.085L348.754 180.087L348.966 179.381ZM345.69 178.735C343.562 179.072 341.604 179.939 339.832 181.335L340.568 182.416C342.113 181.198 343.815 180.442 345.69 180.145V178.735ZM339.834 181.333C338.094 182.697 336.708 184.386 335.681 186.39L336.894 186.891C337.808 185.107 339.031 183.62 340.566 182.417L339.834 181.333ZM335.68 186.393C334.671 188.378 334.166 190.43 334.166 192.535L335.558 192.314C335.558 190.448 336.003 188.643 336.895 186.889L335.68 186.393ZM334.166 192.535C334.166 194.662 334.682 196.564 335.713 198.228L336.922 197.337C336.013 195.87 335.558 194.2 335.558 192.314L334.166 192.535ZM335.713 198.228C336.738 199.882 338.101 201.124 339.797 201.942L340.542 200.633C339.044 199.91 337.839 198.816 336.922 197.337L335.713 198.228ZM339.806 201.947C341.531 202.743 343.395 202.987 345.387 202.671V201.261C343.657 201.535 342.044 201.326 340.533 200.629L339.806 201.947ZM345.387 202.671C346.52 202.492 347.546 202.223 348.46 201.858L348.137 200.538C347.352 200.851 346.437 201.095 345.387 201.261V202.671ZM348.456 201.86C349.391 201.491 350.282 200.998 351.127 200.381L350.443 199.262C349.712 199.795 348.945 200.22 348.141 200.536L348.456 201.86ZM351.482 199.711V192.495L350.089 192.715V199.932L351.482 199.711ZM350.785 191.9L343.263 193.091V194.501L350.785 193.31V191.9ZM343.96 193.686V192.795L342.567 193.016V193.907L343.96 193.686ZM343.263 193.611L351.786 192.261V190.851L343.263 192.201V193.611ZM351.09 191.666V199.128L352.483 198.908V191.446L351.09 191.666ZM352.098 199.599L352.158 199.559L351.536 198.396L351.475 198.437L352.098 199.599ZM351.151 199.088V200.224L352.543 200.004V198.867L351.151 199.088ZM351.487 199.567C350.571 200.273 349.633 200.823 348.672 201.223L349.016 202.535C350.118 202.076 351.182 201.45 352.207 200.66L351.487 199.567ZM348.656 201.23C347.715 201.646 346.667 201.949 345.508 202.133V203.542C346.775 203.342 347.951 203.006 349.032 202.528L348.656 201.23ZM345.508 202.133C343.503 202.45 341.673 202.249 340.003 201.533L339.305 202.864C341.194 203.673 343.266 203.898 345.508 203.542V202.133ZM340.008 201.535C338.334 200.799 337.003 199.644 336.011 198.062L334.805 198.959C335.915 200.728 337.416 202.033 339.3 202.862L340.008 201.535ZM336.015 198.07C335.047 196.474 334.557 194.584 334.557 192.381L333.165 192.601C333.165 195.025 333.706 197.148 334.801 198.951L336.015 198.07ZM334.557 192.381C334.557 190.269 335.063 188.277 336.069 186.388L334.869 185.863C333.731 187.999 333.165 190.25 333.165 192.601L334.557 192.381ZM336.066 186.394C337.098 184.487 338.46 182.903 340.157 181.631L339.455 180.525C337.552 181.952 336.022 183.733 334.872 185.857L336.066 186.394ZM340.154 181.633C341.871 180.357 343.683 179.572 345.599 179.269V177.859C343.431 178.202 341.38 179.094 339.457 180.523L340.154 181.633ZM345.599 179.269C346.982 179.049 348.023 179.016 348.755 179.135L349.176 177.724C348.25 177.574 347.047 177.629 345.599 177.859V179.269ZM348.77 179.137C349.528 179.242 350.436 179.51 351.5 179.96L352.194 178.627C351.074 178.154 350.061 177.846 349.161 177.722L348.77 179.137ZM351.151 179.404V180.54L352.543 180.32V179.183L351.151 179.404ZM352.241 179.786C351.171 179.212 350.149 178.835 349.177 178.676L348.754 180.087C349.561 180.219 350.46 180.541 351.453 181.073L352.241 179.786ZM349.195 178.68C348.228 178.491 347.052 178.519 345.69 178.735V180.145C346.957 179.944 347.965 179.933 348.736 180.083L349.195 178.68ZM370.47 175.238V174.533L369.774 174.644V175.349L370.47 175.238ZM377.052 176.131L376.571 176.717L376.575 176.72L377.052 176.131ZM378.083 185.088L378.688 185.342L378.69 185.337L378.083 185.088ZM375.444 188.177L375.778 188.743L375.786 188.737L375.444 188.177ZM371.471 189.728V189.023L370.775 189.133V189.838L371.471 189.728ZM371.471 198.111V198.816L372.167 198.706V198.001L371.471 198.111ZM370.47 198.27L369.774 198.38V199.085L370.47 198.975V198.27ZM376.294 186.354L376.777 186.784L376.782 186.779L376.294 186.354ZM376.385 176.82L375.897 177.4L375.906 177.408L376.385 176.82ZM371.471 175.97V175.266L370.775 175.376V176.081L371.471 175.97ZM371.471 188.837L370.775 188.948V189.653L371.471 189.542V188.837ZM370.47 175.943L371.471 175.785V174.375L370.47 174.533V175.943ZM371.471 175.785C373.732 175.427 375.401 175.771 376.571 176.717L377.533 175.545C376.034 174.334 373.982 173.977 371.471 174.375V175.785ZM376.575 176.72C377.747 177.649 378.357 179.063 378.357 181.052L379.75 180.832C379.75 178.521 379.026 176.728 377.529 175.541L376.575 176.72ZM378.357 181.052C378.357 182.44 378.058 183.697 377.476 184.839L378.69 185.337C379.402 183.94 379.75 182.433 379.75 180.832L378.357 181.052ZM377.478 184.834C376.892 185.965 376.103 186.888 375.102 187.617L375.786 188.737C377.01 187.845 377.98 186.708 378.688 185.342L377.478 184.834ZM375.111 187.611C374.11 188.323 372.982 188.783 371.714 188.984V190.394C373.195 190.16 374.555 189.612 375.778 188.743L375.111 187.611ZM371.714 188.984L371.471 189.023V190.433L371.714 190.394V188.984ZM370.775 189.838V198.221L372.167 198.001V189.618L370.775 189.838ZM371.471 197.406L370.47 197.565V198.975L371.471 198.816V197.406ZM371.166 198.159V175.128L369.774 175.349V198.38L371.166 198.159ZM371.774 189.494C373.77 189.178 375.458 188.283 376.777 186.784L375.81 185.923C374.784 187.089 373.459 187.817 371.774 188.084V189.494ZM376.782 186.779C378.121 185.235 378.749 183.296 378.749 181.052L377.356 181.272C377.356 183.245 376.812 184.768 375.806 185.928L376.782 186.779ZM378.749 181.052C378.749 178.912 378.152 177.262 376.863 176.232L375.906 177.408C376.841 178.155 377.356 179.4 377.356 181.272L378.749 181.052ZM376.872 176.239C375.613 175.187 373.857 174.888 371.714 175.227V176.637C373.614 176.336 374.973 176.628 375.897 177.4L376.872 176.239ZM371.714 175.227L371.471 175.266V176.675L371.714 176.637V175.227ZM370.775 176.081V188.948L372.167 188.727V175.86L370.775 176.081ZM371.471 189.542L371.774 189.494V188.084L371.471 188.132V189.542ZM386.469 172.705V172L385.773 172.11V172.815L386.469 172.705ZM387.47 172.546L388.166 172.436V171.731L387.47 171.841V172.546ZM387.47 194.687L386.773 194.797V195.502L387.47 195.392V194.687ZM394.506 193.572L395.203 193.462V192.757L394.506 192.867V193.572ZM394.506 194.463V195.168L395.203 195.057V194.352L394.506 194.463ZM386.469 195.736L385.773 195.846V196.551L386.469 196.441V195.736ZM386.469 173.41L387.47 173.251V171.841L386.469 172V173.41ZM386.773 172.656V194.797L388.166 194.576V172.436L386.773 172.656ZM387.47 195.392L394.506 194.277V192.867L387.47 193.982V195.392ZM393.81 193.682V194.573L395.203 194.352V193.462L393.81 193.682ZM394.506 193.758L386.469 195.031V196.441L394.506 195.168V193.758ZM387.165 195.625V172.594L385.773 172.815V195.846L387.165 195.625ZM422.781 189.984V190.689L423.896 190.513L423.407 189.576L422.781 189.984ZM421.72 190.153L421.096 190.565L421.288 190.926L421.72 190.858V190.153ZM417.413 182.052L418.036 181.64L417.845 181.279L417.413 181.347V182.052ZM405.341 183.964V183.259L404.906 183.328L404.715 183.755L405.341 183.964ZM401.125 193.414V194.119L401.561 194.05L401.752 193.623L401.125 193.414ZM400.064 193.583L399.438 193.373L398.95 194.464L400.064 194.287V193.583ZM411.407 168.202L412.033 167.793L411.407 166.594L410.781 167.992L411.407 168.202ZM417.049 181.219V181.924L418.169 181.747L417.673 180.808L417.049 181.219ZM411.347 170.423L411.971 170.012L411.34 168.817L410.72 170.215L411.347 170.423ZM405.766 183.006L405.139 182.799L404.656 183.887L405.766 183.711V183.006ZM422.781 189.279L421.72 189.448V190.858L422.781 190.689V189.279ZM422.343 189.74L418.036 181.64L416.789 182.464L421.096 190.565L422.343 189.74ZM417.413 181.347L405.341 183.259V184.669L417.413 182.757V181.347ZM404.715 183.755L400.499 193.205L401.752 193.623L405.968 184.173L404.715 183.755ZM401.125 192.709L400.064 192.878V194.287L401.125 194.119V192.709ZM400.69 193.792L412.033 168.411L410.781 167.992L399.438 193.373L400.69 193.792ZM410.782 168.61L422.156 190.393L423.407 189.576L412.033 167.793L410.782 168.61ZM417.673 180.808L411.971 170.012L410.722 170.833L416.424 181.63L417.673 180.808ZM410.72 170.215L405.139 182.799L406.393 183.214L411.974 170.63L410.72 170.215ZM405.766 183.711L417.049 181.924V180.514L405.766 182.301V183.711ZM430.985 167.957L431.527 167.429L430.289 166.067V168.067L430.985 167.957ZM430.985 188.685V189.39L431.681 189.28V188.575L430.985 188.685ZM430.105 188.824L429.409 188.935V189.64L430.105 189.529V188.824ZM430.105 165.455L430.648 164.927L429.409 163.567V165.566L430.105 165.455ZM446.848 183.839L446.305 184.367L447.544 185.727V183.729L446.848 183.839ZM446.848 163.141V162.436L446.151 162.547V163.252L446.848 163.141ZM447.727 163.002L448.424 162.892V162.187L447.727 162.297V163.002ZM447.727 186.371L447.185 186.899L448.424 188.262V186.261L447.727 186.371ZM430.289 168.067V188.795L431.681 188.575V167.847L430.289 168.067ZM430.985 187.98L430.105 188.119V189.529L430.985 189.39V187.98ZM430.802 188.714V165.345L429.409 165.566V188.935L430.802 188.714ZM429.563 165.984L446.305 184.367L447.39 183.311L430.648 164.927L429.563 165.984ZM447.544 183.729V163.031L446.151 163.252V183.949L447.544 183.729ZM446.848 163.846L447.727 163.707V162.297L446.848 162.436V163.846ZM447.031 163.112V186.481L448.424 186.261V162.892L447.031 163.112ZM448.27 185.843L431.527 167.429L430.442 168.485L447.185 186.899L448.27 185.843ZM457.35 163.781L457.892 163.253L456.653 161.891V163.892L457.35 163.781ZM457.35 184.509V185.214L458.046 185.104V184.399L457.35 184.509ZM456.47 184.649L455.774 184.759V185.464L456.47 185.354V184.649ZM456.47 161.28L457.012 160.751L455.774 159.392V161.39L456.47 161.28ZM473.212 179.663L472.67 180.191L473.909 181.551V179.553L473.212 179.663ZM473.212 158.966V158.261L472.516 158.371V159.076L473.212 158.966ZM474.092 158.826L474.788 158.716V158.011L474.092 158.121V158.826ZM474.092 182.195L473.55 182.723L474.788 184.086V182.085L474.092 182.195ZM456.653 163.892V184.62L458.046 184.399V163.671L456.653 163.892ZM457.35 183.804L456.47 183.944V185.354L457.35 185.214V183.804ZM457.166 184.538V161.169L455.774 161.39V184.759L457.166 184.538ZM455.928 161.808L472.67 180.191L473.755 179.135L457.012 160.751L455.928 161.808ZM473.909 179.553V158.855L472.516 159.076V179.773L473.909 179.553ZM473.212 159.671L474.092 159.531V158.121L473.212 158.261V159.671ZM473.396 158.937V182.306L474.788 182.085V158.716L473.396 158.937ZM474.634 181.668L457.892 163.253L456.807 164.309L473.55 182.723L474.634 181.668ZM482.987 157.418V156.713L482.29 156.823V157.528L482.987 157.418ZM483.987 157.259L484.684 157.149V156.444L483.987 156.554V157.259ZM483.987 180.29V180.995L484.684 180.885V180.18L483.987 180.29ZM482.987 180.449L482.29 180.559V181.264L482.987 181.154V180.449ZM482.987 158.123L483.987 157.964V156.554L482.987 156.713V158.123ZM483.291 157.369V180.401L484.684 180.18V157.149L483.291 157.369ZM483.987 179.585L482.987 179.744V181.154L483.987 180.995V179.585ZM483.683 180.339V157.307L482.29 157.528V180.559L483.683 180.339ZM493.759 158.015L494.302 157.487L493.063 156.124V158.125L493.759 158.015ZM493.759 178.743V179.448L494.455 179.337V178.632L493.759 178.743ZM492.879 178.882L492.183 178.992V179.697L492.879 179.587V178.882ZM492.879 155.513L493.422 154.985L492.183 153.625V155.623L492.879 155.513ZM509.622 173.896L509.08 174.425L510.318 175.785V173.786L509.622 173.896ZM509.622 153.199V152.494L508.925 152.604V153.309L509.622 153.199ZM510.501 153.06L511.198 152.949V152.244L510.501 152.355V153.06ZM510.501 176.429L509.959 176.957L511.198 178.319V176.318L510.501 176.429ZM493.063 158.125V178.853L494.455 178.632V157.904L493.063 158.125ZM493.759 178.038L492.879 178.177V179.587L493.759 179.448V178.038ZM493.576 178.772V155.403L492.183 155.623V178.992L493.576 178.772ZM492.337 156.041L509.08 174.425L510.164 173.368L493.422 154.985L492.337 156.041ZM510.318 173.786V153.089L508.925 153.309V174.007L510.318 173.786ZM509.622 153.904L510.501 153.765V152.355L509.622 152.494V153.904ZM509.805 153.17V176.539L511.198 176.318V152.949L509.805 153.17ZM511.044 175.901L494.302 157.487L493.217 158.542L509.959 176.957L511.044 175.901ZM524.613 152.667L524.978 153.209L524.98 153.208L524.613 152.667ZM520.7 157.433L520.094 157.182L520.092 157.185L520.7 157.433ZM520.73 168.575L520.126 169.02L520.73 168.575ZM524.582 172.08L524.21 172.734L524.219 172.738L524.582 172.08ZM532.711 171.99L532.553 171.328L532.55 171.33L532.711 171.99ZM535.198 170.613L535.54 171.173L535.894 170.915V170.503L535.198 170.613ZM535.198 163.397L535.894 163.287V162.582L535.198 162.692V163.397ZM527.676 164.588L526.98 164.698V165.403L527.676 165.293V164.588ZM527.676 163.698V162.993L526.98 163.103V163.808L527.676 163.698ZM536.199 162.348L536.895 162.237V161.532L536.199 161.643V162.348ZM536.199 169.81L535.503 169.92V171.061L536.51 170.391L536.199 169.81ZM536.26 169.77L536.956 169.659V168.519L535.948 169.188L536.26 169.77ZM536.26 170.906L536.62 171.452L536.956 171.193V170.795L536.26 170.906ZM533.257 172.671L533.085 172.015L533.077 172.018L533.069 172.022L533.257 172.671ZM524.067 172.99L523.713 173.654L523.718 173.656L524.067 172.99ZM519.821 169.302L519.213 169.743L519.218 169.751L519.821 169.302ZM519.881 156.917L519.284 156.649L519.281 156.655L519.881 156.917ZM524.218 151.87L523.87 151.315L523.867 151.317L524.218 151.87ZM533.378 149.221L533.168 149.927L533.175 149.928L533.183 149.929L533.378 149.221ZM536.26 150.086L536.956 149.975V149.567L536.606 149.419L536.26 150.086ZM536.26 151.222L535.866 151.865L536.956 152.45V151.111L536.26 151.222ZM533.378 150.173L533.149 150.875L533.158 150.877L533.167 150.879L533.378 150.173ZM530.102 149.527C527.974 149.864 526.016 150.731 524.245 152.127L524.98 153.208C526.525 151.99 528.227 151.234 530.102 150.937V149.527ZM524.247 152.125C522.506 153.489 521.121 155.178 520.094 157.182L521.306 157.683C522.221 155.899 523.443 154.412 524.978 153.209L524.247 152.125ZM520.092 157.185C519.084 159.17 518.578 161.221 518.578 163.327L519.971 163.106C519.971 161.24 520.416 159.435 521.308 157.681L520.092 157.185ZM518.578 163.327C518.578 165.454 519.094 167.356 520.126 169.02L521.335 168.129C520.425 166.662 519.971 164.991 519.971 163.106L518.578 163.327ZM520.126 169.02C521.151 170.674 522.513 171.916 524.21 172.734L524.955 171.425C523.457 170.702 522.251 169.608 521.335 168.129L520.126 169.02ZM524.219 172.738C525.943 173.535 527.808 173.778 529.799 173.463V172.053C528.07 172.327 526.456 172.118 524.946 171.421L524.219 172.738ZM529.799 173.463C530.932 173.284 531.959 173.015 532.872 172.65L532.55 171.33C531.764 171.643 530.85 171.887 529.799 172.053V173.463ZM532.869 172.652C533.804 172.283 534.695 171.79 535.54 171.173L534.856 170.053C534.124 170.587 533.357 171.012 532.553 171.328L532.869 172.652ZM535.894 170.503V163.287L534.502 163.507V170.724L535.894 170.503ZM535.198 162.692L527.676 163.883V165.293L535.198 164.102V162.692ZM528.372 164.478V163.587L526.98 163.808V164.698L528.372 164.478ZM527.676 164.403L536.199 163.053V161.643L527.676 162.993V164.403ZM535.503 162.458V169.92L536.895 169.7V162.237L535.503 162.458ZM536.51 170.391L536.571 170.351L535.948 169.188L535.887 169.229L536.51 170.391ZM535.563 169.88V171.016L536.956 170.795V169.659L535.563 169.88ZM535.899 170.359C534.984 171.065 534.046 171.615 533.085 172.015L533.429 173.327C534.53 172.868 535.594 172.242 536.62 171.452L535.899 170.359ZM533.069 172.022C532.128 172.438 531.08 172.741 529.921 172.924V174.334C531.188 174.134 532.364 173.798 533.445 173.32L533.069 172.022ZM529.921 172.924C527.916 173.242 526.086 173.04 524.416 172.325L523.718 173.656C525.607 174.465 527.679 174.689 529.921 174.334V172.924ZM524.421 172.327C522.747 171.591 521.416 170.436 520.423 168.854L519.218 169.751C520.328 171.52 521.828 172.825 523.713 173.653L524.421 172.327ZM520.428 168.862C519.46 167.266 518.97 165.376 518.97 163.173L517.577 163.393C517.577 165.817 518.119 167.94 519.213 169.743L520.428 168.862ZM518.97 163.173C518.97 161.061 519.475 159.069 520.481 157.18L519.281 156.655C518.144 158.791 517.577 161.042 517.577 163.393L518.97 163.173ZM520.478 157.185C521.511 155.279 522.873 153.695 524.57 152.423L523.867 151.317C521.965 152.744 520.435 154.525 519.284 156.649L520.478 157.185ZM524.567 152.425C526.284 151.149 528.095 150.364 530.011 150.06V148.65C527.843 148.994 525.793 149.885 523.87 151.315L524.567 152.425ZM530.011 150.06C531.394 149.841 532.436 149.808 533.168 149.927L533.589 148.516C532.662 148.365 531.459 148.421 530.011 148.65V150.06ZM533.183 149.929C533.941 150.034 534.849 150.302 535.913 150.752L536.606 149.419C535.486 148.946 534.473 148.638 533.574 148.514L533.183 149.929ZM535.563 150.196V151.332L536.956 151.111V149.975L535.563 150.196ZM536.653 150.578C535.584 150.004 534.562 149.627 533.589 149.468L533.167 150.879C533.974 151.011 534.873 151.333 535.866 151.865L536.653 150.578ZM533.607 149.471C532.64 149.283 531.464 149.311 530.102 149.527V150.937C531.369 150.736 532.377 150.725 533.149 150.875L533.607 149.471Z" fill="#454545"/>
  </svg>
  